<svg width="18" height="18" viewBox="0 0 18 18" fill="none" xmlns="http://www.w3.org/2000/svg">
<path d="M11.9189 1.48828H5.91367C4.74028 1.48966 3.61535 1.95645 2.78571 2.78623C1.95606 3.61602 1.48946 4.74102 1.48828 5.91441L1.48828 11.9196C1.48966 13.093 1.95645 14.2179 2.78623 15.0476C3.61602 15.8772 4.74102 16.3438 5.91441 16.345H11.9196C13.093 16.3436 14.2179 15.8768 15.0476 15.047C15.8772 14.2173 16.3438 13.0922 16.345 11.9189V5.91367C16.3436 4.74028 15.8768 3.61535 15.047 2.78571C14.2173 1.95606 13.0922 1.48946 11.9189 1.48828V1.48828ZM14.8508 11.9189C14.8508 12.3039 14.7749 12.6851 14.6276 13.0408C14.4802 13.3966 14.2643 13.7198 13.992 13.992C13.7198 14.2643 13.3966 14.4802 13.0408 14.6276C12.6851 14.7749 12.3039 14.8508 11.9189 14.8508H5.91367C5.13621 14.8506 4.39066 14.5416 3.84098 13.9918C3.2913 13.4419 2.98251 12.6963 2.98251 11.9189V5.91367C2.98271 5.13621 3.29169 4.39066 3.84151 3.84098C4.39132 3.2913 5.13695 2.98251 5.91441 2.98251H11.9196C12.6971 2.98271 13.4426 3.29169 13.9923 3.84151C14.542 4.39132 14.8508 5.13695 14.8508 5.91441V11.9196V11.9189Z" fill="#525252"/>
<path d="M8.91619 5.07422C7.89778 5.07579 6.92155 5.4811 6.2015 6.20129C5.48145 6.92149 5.07633 7.8978 5.07495 8.9162C5.07613 9.93486 5.48127 10.9115 6.2015 11.6319C6.92174 12.3522 7.89827 12.7575 8.91693 12.7589C9.93572 12.7577 10.9125 12.3525 11.6328 11.6321C12.3532 10.9117 12.7585 9.93499 12.7597 8.9162C12.7581 7.89754 12.3526 6.92108 11.6321 6.20099C10.9115 5.48089 9.93485 5.07595 8.91619 5.07496V5.07422ZM8.91619 11.2647C8.29353 11.2647 7.69637 11.0173 7.25608 10.5771C6.81579 10.1368 6.56843 9.53961 6.56843 8.91694C6.56843 8.29428 6.81579 7.69712 7.25608 7.25683C7.69637 6.81654 8.29353 6.56919 8.91619 6.56919C9.53885 6.56919 10.136 6.81654 10.5763 7.25683C11.0166 7.69712 11.2639 8.29428 11.2639 8.91694C11.2639 9.53961 11.0166 10.1368 10.5763 10.5771C10.136 11.0173 9.53885 11.2647 8.91619 11.2647Z" fill="#525252"/>
<path d="M12.7664 6.02374C13.2748 6.02374 13.6869 5.61161 13.6869 5.10324C13.6869 4.59486 13.2748 4.18274 12.7664 4.18274C12.2581 4.18274 11.8459 4.59486 11.8459 5.10324C11.8459 5.61161 12.2581 6.02374 12.7664 6.02374Z" fill="#525252"/>
</svg>
