<svg width="18" height="18" viewBox="0 0 18 18" fill="none" xmlns="http://www.w3.org/2000/svg">
<path d="M16.3405 10.2088V15.6998H13.1571V10.5764C13.1571 9.28901 12.6965 8.41093 11.5446 8.41093C10.665 8.41093 10.1411 9.00326 9.91117 9.57551C9.82709 9.78014 9.8055 10.0651 9.8055 10.3516V15.6998H6.6206C6.6206 15.6998 6.66376 7.02311 6.6206 6.12345H9.8055V7.48076L9.78467 7.51201H9.8055V7.48076C10.2282 6.82964 10.9835 5.89872 12.6749 5.89872C14.7696 5.89872 16.3405 7.26794 16.3405 10.2088ZM3.28984 1.50757C2.20116 1.50757 1.48828 2.22194 1.48828 3.16179C1.48828 4.0808 2.18033 4.81675 3.24817 4.81675H3.269C4.38 4.81675 5.06981 4.0808 5.06981 3.16179C5.05047 2.22194 4.38074 1.50757 3.29058 1.50757H3.28984ZM1.67729 15.6998H4.86071V6.12345H1.67729V15.6998Z" fill="#525252"/>
</svg>
