<svg width="560" height="126" viewBox="0 0 560 126" fill="none" xmlns="http://www.w3.org/2000/svg">
<path d="M5.99593 0C7.17198 6.67026 12.3937 11.181 16.8885 13.6963C16.968 13.5921 17.0488 13.4902 17.1297 13.3906C18.2187 11.9667 19.4753 11.255 20.8993 11.2549C22.6586 11.2549 24.586 11.4217 26.6805 11.7568C28.775 12.092 30.6602 12.4698 32.3358 12.8887C32.8384 13.0563 33.2153 13.5166 33.4666 14.2705C33.8017 14.9406 33.9695 15.6946 33.9696 16.5322C34.0533 17.2861 33.9698 17.9988 33.7186 18.6689C33.551 19.2554 33.2988 19.5488 32.9637 19.5488C31.6234 19.2975 30.4082 19.0884 29.3192 18.9209C28.3977 18.7534 27.476 18.6689 26.5545 18.6689C25.6332 18.5852 25.0883 18.6274 24.9207 18.7949C24.5859 18.9625 24.293 19.2976 24.0418 19.7998C23.7905 20.2187 23.5805 20.7221 23.4129 21.3086C23.2454 21.8112 23.0775 22.3561 22.91 22.9424C22.8263 23.4447 22.7427 23.8633 22.659 24.1982C21.7374 29.5602 20.8994 34.7132 20.1453 39.6562C19.3913 44.5992 19.0989 48.8721 19.2664 52.4746V91.1807C19.2664 92.5211 19.3077 94.1552 19.3914 96.082C19.559 98.009 19.7268 99.9785 19.8944 101.989C20.0619 104.083 20.2298 106.094 20.3973 108.021C20.5649 109.947 20.6483 111.624 20.6483 113.048V121.845C20.4807 122.766 20.1038 123.52 19.5174 124.106C18.931 124.693 18.2185 125.112 17.3807 125.363C16.6268 125.698 15.7894 125.824 14.868 125.74C13.9464 125.74 13.0662 125.531 12.2284 125.112L11.6004 120.588V117.572C11.6004 116.316 11.5582 114.933 11.4744 113.425C11.4744 111.917 11.4322 110.367 11.3485 108.775C11.2647 107.184 11.1813 105.675 11.0975 104.251C11.0137 103.329 10.8881 101.779 10.7205 99.6006C10.6368 97.4225 10.5111 94.9931 10.3436 92.3125C10.176 89.5478 10.0082 86.6989 9.84066 83.7666C9.6731 80.8343 9.50529 78.1533 9.33773 75.7236C9.25395 73.294 9.17053 71.2832 9.08675 69.6914C9.08675 68.1002 9.12901 67.2207 9.21273 67.0527V64.665C9.29651 63.5759 9.37993 62.4444 9.46371 61.2715C9.54749 60.0986 9.58968 58.8837 9.58968 57.627C9.67346 56.2865 9.71468 54.9459 9.71468 53.6055C9.88223 51.4273 9.96663 49.4585 9.96664 47.6992C10.0504 45.9399 10.0916 44.725 10.0916 44.0547C10.0916 43.2169 10.1338 41.8342 10.2176 39.9072C10.3168 38.7169 10.4474 37.4534 10.6053 36.1162C9.92629 36.0636 9.24112 35.9098 8.55746 35.6328C3.30988 33.5071 1.9121 29.4335 1.86898 27.6621C6.86264 30.6906 9.46739 30.4761 10.1453 29.9902C0.0353457 25.5224 -0.627301 16.811 0.305503 13.0137C1.44323 18.2051 7.60564 21.6974 10.5448 22.7949C9.26714 21.0822 5.88977 17.0601 4.743 13.0137C3.69754 9.32448 4.36185 2.92352 5.99593 0ZM276.648 20.8057C277.402 20.8057 278.115 20.9313 278.785 21.1826C279.539 21.3502 280.209 21.5592 280.796 21.8105C281.382 22.0619 281.801 22.3553 282.053 22.6904C282.388 23.0255 282.513 23.319 282.43 23.5703C282.346 24.4918 282.261 25.497 282.178 26.5859C282.094 27.6751 282.01 29.1 281.927 30.8594C281.843 32.6186 281.759 34.7967 281.676 37.3936C281.592 39.9907 281.507 43.3008 281.424 47.3223C281.424 47.5739 281.466 48.3699 281.55 49.71C281.633 51.0504 281.759 52.5588 281.927 54.2344C282.094 56.4125 282.262 58.507 282.43 60.5176C282.681 62.5282 282.806 63.8688 282.806 64.5391H285.32C285.655 64.5389 286.284 64.4133 287.205 64.1621C288.21 63.9108 289.3 63.6595 290.473 63.4082C291.562 63.1569 292.567 62.9468 293.488 62.7793C294.41 62.528 294.997 62.4023 295.248 62.4023C295.499 62.4023 296.211 62.3601 297.384 62.2764C298.557 62.1088 299.939 61.942 301.531 61.7744C303.207 61.5231 304.966 61.3131 306.809 61.1455C308.653 60.8942 310.412 60.6429 312.088 60.3916C312.758 60.2241 313.47 60.1407 314.223 60.1406C314.978 60.0568 315.607 59.9725 316.109 59.8887C316.528 57.4592 316.905 55.0713 317.24 52.7256C317.659 50.2961 317.868 48.7042 317.868 47.9502C317.868 47.6151 317.952 47.1546 318.12 46.5684C318.371 45.982 318.623 45.4372 318.874 44.9346C319.209 44.3481 319.586 43.7191 320.005 43.0488C320.34 42.7138 320.759 42.379 321.262 42.0439C321.764 41.625 322.267 41.2894 322.769 41.0381C323.356 40.7868 323.858 40.7035 324.277 40.7871C324.78 40.7871 325.158 40.9963 325.409 41.415C325.66 41.8339 325.744 42.882 325.66 44.5576C325.66 46.2331 325.618 47.6572 325.534 48.8301C325.534 49.0813 325.493 49.3327 325.409 49.584V50.2129C325.409 50.5483 325.325 51.3858 325.157 52.7256C324.99 54.0661 324.822 55.4488 324.654 56.873C324.403 58.5486 324.194 60.4339 324.026 62.5283C323.775 63.7849 323.566 65.3348 323.398 67.1777C323.231 68.937 323.063 70.4033 322.895 71.5762C322.812 71.9951 322.769 72.3307 322.769 72.582V73.085C322.351 75.7657 322.099 78.1537 322.015 80.248V84.8975C322.015 85.3164 321.764 85.9032 321.262 86.6572C320.843 87.4111 320.507 87.7047 320.256 87.5371H318.497C317.743 87.4533 316.988 87.3267 316.234 87.1592C315.48 86.9916 314.81 86.7403 314.223 86.4053C313.721 85.9864 313.47 85.4415 313.47 84.7715C313.47 83.9337 313.554 82.5929 313.722 80.75C313.973 78.8232 314.182 76.8543 314.349 74.8438C314.517 73.4195 314.685 72.0367 314.852 70.6963C315.02 69.2721 315.103 67.7223 315.103 66.0469C314.601 66.2144 313.805 66.4657 312.716 66.8008C311.71 67.0521 310.495 67.3456 309.071 67.6807C307.647 68.0158 306.097 68.3927 304.422 68.8115C302.746 69.2304 301.112 69.6073 299.52 69.9424C298.012 70.2775 296.546 70.6131 295.122 70.9482C293.698 71.2833 292.399 71.618 291.226 71.9531C290.137 72.2045 289.174 72.4145 288.336 72.582C287.582 72.7496 287.121 72.8752 286.953 72.959C285.948 73.2104 285.236 73.9643 284.817 75.2207C284.482 76.3936 284.314 77.8185 284.314 79.4941C284.314 81.002 284.398 82.6355 284.565 84.3945C284.817 86.07 285.027 87.662 285.194 89.1699L285.571 91.9355C285.655 92.3546 285.738 93.1507 285.822 94.3232C285.99 95.4123 286.2 96.6687 286.451 98.0928C286.702 99.7683 286.954 101.611 287.205 103.622C287.54 105.549 287.833 107.393 288.085 109.152C288.42 110.912 288.671 112.461 288.839 113.802C289.006 115.142 289.09 116.021 289.09 116.44V124.232C289.09 124.4 288.755 124.609 288.085 124.86C287.415 125.112 286.66 125.28 285.822 125.363C284.984 125.531 284.188 125.573 283.434 125.489C282.764 125.405 282.387 125.028 282.304 124.358C281.633 122.767 281.089 121.007 280.67 119.08C280.335 117.153 279.958 115.184 279.539 113.174C279.288 112.001 279.036 110.869 278.785 109.78C278.617 108.608 278.366 107.477 278.031 106.388C277.026 101.864 276.188 96.794 275.517 91.1807C274.931 85.4837 274.428 80.038 274.01 74.8438L272.879 63.4082L271.622 52.6006V48.7041C271.706 46.9449 271.789 45.0181 271.873 42.9238C271.957 40.7455 272.04 38.5248 272.124 36.2627C272.208 34.0009 272.292 31.9485 272.376 30.1055C272.543 28.1787 272.627 26.5867 272.627 25.3301C272.711 23.9896 272.795 23.2349 272.879 23.0674C273.046 22.2299 273.465 21.6437 274.135 21.3086C274.889 20.9735 275.727 20.8057 276.648 20.8057ZM163.02 57.8779C163.523 57.8779 163.859 58.1301 164.026 58.6328C164.194 59.1354 164.235 59.7638 164.151 60.5176C164.067 61.2715 163.858 62.0675 163.523 62.9053C163.272 63.6593 162.979 64.3296 162.643 64.916C161.303 65.67 160.047 66.466 158.874 67.3037C157.868 67.974 156.863 68.7698 155.857 69.6914C154.852 70.5291 154.098 71.4087 153.596 72.3301C151.417 76.3515 149.322 80.3318 147.311 84.2695C145.301 88.2071 144.002 92.1033 143.416 95.957C143.165 97.7161 142.955 99.3496 142.788 100.857C142.704 102.282 142.788 103.539 143.039 104.628C143.374 105.717 143.919 106.596 144.673 107.267C145.51 107.937 146.641 108.315 148.065 108.398C148.484 108.398 149.029 108.231 149.699 107.896C150.369 107.56 151.082 107.016 151.836 106.262C152.59 105.424 153.302 104.418 153.972 103.245C154.643 101.988 155.229 100.522 155.731 98.8467C156.569 96.0822 157.282 93.7786 157.868 91.9355C158.454 90.0925 158.957 88.4584 159.376 87.0342C159.543 86.1965 159.795 85.5261 160.13 85.0234C160.549 84.437 160.926 83.9345 161.262 83.5156C161.597 83.0968 162.015 82.7611 162.517 82.5098C162.936 82.2584 163.523 82.0906 164.277 82.0068C165.115 81.8393 165.953 81.7981 166.791 81.8818C167.712 81.8819 168.592 81.9653 169.43 82.1328C170.267 82.2166 170.938 82.3422 171.44 82.5098C172.697 82.9287 174.037 83.9345 175.462 85.5264C176.97 87.1181 178.436 88.9191 179.86 90.9297C181.368 92.8566 182.834 94.784 184.259 96.7109C185.683 98.5541 186.982 99.8946 188.155 100.732C188.993 101.151 189.83 101.528 190.668 101.863C191.338 102.198 192.05 102.492 192.805 102.743C193.642 102.994 194.396 103.161 195.066 103.245C197.244 103.58 199.13 103.916 200.722 104.251C202.313 104.586 203.696 104.754 204.869 104.754C206.042 105.005 206.587 105.55 206.503 106.388C206.419 107.142 205.874 107.812 204.869 108.398C203.445 109.152 202.104 109.696 200.847 110.031C199.591 110.283 198.376 110.493 197.203 110.66C196.03 110.744 194.815 110.786 193.558 110.786C192.302 110.702 190.919 110.66 189.411 110.66C188.825 110.66 188.154 110.577 187.4 110.409C186.646 110.158 185.935 109.864 185.264 109.529C184.427 109.194 183.589 108.817 182.751 108.398C181.494 107.309 180.363 106.22 179.357 105.131C178.436 103.958 177.514 102.743 176.593 101.486C175.671 100.23 174.666 98.889 173.577 97.4648C172.488 96.0406 171.147 94.4488 169.555 92.6895C168.466 91.5165 167.503 90.7619 166.665 90.4268C165.827 90.008 165.325 90.5114 165.157 91.9355L161.639 104.879C160.884 106.722 160.172 108.273 159.502 109.529C158.915 110.786 158.287 111.875 157.617 112.797C156.947 113.718 156.192 114.514 155.354 115.185C154.6 115.855 153.679 116.525 152.59 117.195C151.836 117.698 150.83 118.033 149.574 118.2C148.401 118.368 147.144 118.368 145.804 118.2C144.547 118.033 143.332 117.739 142.159 117.32C140.986 116.985 140.022 116.566 139.268 116.063C138.514 115.561 137.718 114.849 136.881 113.928C136.127 113.09 135.456 112.001 134.87 110.66C134.367 109.32 133.99 107.644 133.739 105.633C133.572 103.622 133.656 101.234 133.991 98.4697C134.242 96.5428 134.828 94.2384 135.75 91.5576C136.755 88.8769 137.887 86.1964 139.143 83.5156C140.4 80.7509 141.656 78.1111 142.913 75.5977C144.17 73.0005 145.176 70.8641 145.93 69.1885C146.181 68.6858 146.558 68.0154 147.06 67.1777C147.563 66.2562 148.066 65.3346 148.568 64.4131C149.155 63.4915 149.699 62.6534 150.202 61.8994C150.788 61.0617 151.25 60.4335 151.585 60.0146C151.836 59.7635 152.129 59.5119 152.464 59.2607C152.799 59.0095 153.344 58.8004 154.097 58.6328C154.852 58.3815 155.9 58.2137 157.24 58.1299C158.664 57.9624 160.591 57.8779 163.02 57.8779ZM254.273 18.9209C255.865 18.921 256.619 20.2615 256.535 22.9424C256.451 25.6234 255.991 29.8543 255.153 35.6348C255.069 36.0537 254.902 37.1009 254.65 38.7764C254.399 40.452 254.105 42.4627 253.77 44.8086C253.519 47.1544 253.184 49.6678 252.765 52.3486C252.43 55.0295 252.095 57.5429 251.76 59.8887C251.508 62.2343 251.257 64.2454 251.006 65.9209C250.838 67.5965 250.755 68.6446 250.755 69.0635C250.755 71.493 250.796 74.1743 250.88 77.1064C251.047 80.0385 251.215 82.8868 251.383 85.6514C251.634 88.4161 251.885 90.8881 252.137 93.0664C252.472 95.2446 252.807 96.7943 253.142 97.7158C253.645 99.3913 254.105 100.858 254.524 102.114C254.943 103.287 255.404 104.419 255.907 105.508C256.41 106.513 256.954 107.56 257.541 108.649L259.803 112.042V112.671C259.803 112.838 259.76 113.09 259.677 113.425C259.593 113.844 259.426 114.305 259.175 114.808C258.923 115.31 258.504 115.981 257.918 116.818C256.829 118.159 255.237 118.159 253.142 116.818C252.221 116.316 251.425 115.603 250.755 114.682C250.084 113.844 249.455 112.88 248.869 111.791C248.283 110.618 247.738 109.445 247.235 108.272C246.816 107.1 246.398 105.968 245.979 104.879L244.722 97.7158C243.131 100.732 241.497 103.287 239.821 105.382C238.146 107.393 236.554 109.027 235.046 110.283C233.538 111.54 232.155 112.504 230.898 113.174C229.725 113.76 228.762 114.178 228.008 114.43C225.076 115.435 222.227 115.519 219.463 114.682C216.782 113.928 214.393 112.504 212.299 110.409C210.204 108.315 208.487 105.759 207.146 102.743C205.89 99.6433 205.262 96.3754 205.262 92.9404C205.262 88.5839 205.387 84.6044 205.639 81.002C205.974 77.3157 207.063 74.1321 208.906 71.4512C208.99 71.1999 209.45 70.4872 210.288 69.3145C211.126 68.0578 212.257 66.7594 213.681 65.4189C215.19 63.9947 216.949 62.6954 218.96 61.5225C220.97 60.3497 223.191 59.6793 225.62 59.5117C226.29 59.5117 227.128 59.6373 228.134 59.8887C229.139 60.0562 230.103 60.3084 231.024 60.6436C232.029 60.8949 232.909 61.1462 233.663 61.3975C234.417 61.6488 234.878 61.8156 235.046 61.8994C235.883 61.8995 236.512 62.1517 236.93 62.6543C237.433 63.0732 237.81 63.6593 238.061 64.4131C238.313 65.0833 238.48 65.8793 238.564 66.8008C238.648 67.6386 238.731 68.5188 238.815 69.4404C238.145 69.4404 237.308 69.3982 236.303 69.3145C235.381 69.1469 234.375 68.9791 233.286 68.8115C232.281 68.644 231.276 68.5183 230.27 68.4346C229.349 68.267 228.594 68.1836 228.008 68.1836C225.494 68.1837 223.358 68.8951 221.598 70.3193C219.923 71.6598 218.541 73.4195 217.452 75.5977C216.447 77.7759 215.734 80.2058 215.315 82.8867C214.896 85.4839 214.771 88.0393 214.938 90.5527C215.022 91.9769 215.106 93.401 215.189 94.8252C215.273 96.2494 215.483 97.59 215.818 98.8467C216.153 100.103 216.698 101.277 217.452 102.366C218.29 103.371 219.421 104.209 220.845 104.879C222.101 105.465 223.274 105.717 224.363 105.633C225.452 105.549 226.5 105.298 227.506 104.879C228.511 104.376 229.474 103.748 230.395 102.994C231.317 102.156 232.155 101.277 232.909 100.355C233.831 99.2663 234.669 98.2183 235.423 97.2129C236.177 96.1238 236.889 94.8675 237.559 93.4434C238.23 91.9353 238.858 90.1758 239.444 88.165C240.031 86.0705 240.617 83.4729 241.203 80.373C241.789 77.1896 242.334 73.4197 242.837 69.0635C243.423 64.7069 244.052 59.5117 244.722 53.4795C244.806 52.3904 244.932 50.8406 245.099 48.8301C245.351 46.8195 245.602 44.5994 245.853 42.1699C246.105 39.6566 246.356 37.101 246.607 34.5039C246.942 31.8229 247.236 29.3509 247.487 27.0889C247.822 24.7431 248.157 22.7322 248.492 21.0566C248.827 19.3812 249.163 18.2505 249.498 17.6641L254.273 18.9209ZM485.142 34.3779C486.148 34.1268 487.614 34.3779 489.541 35.1318C493.646 36.8074 497.416 38.8184 500.85 41.1641C504.285 43.4261 506.841 45.7725 508.516 48.2021C509.037 48.9176 509.429 49.8604 509.697 51.0303C516.268 50.1993 526.152 49.8506 535.151 52.2031C547.089 55.3237 556.666 48.6497 559.962 44.9229C559.921 52.173 548.317 66.6447 538.27 65.626C528.224 64.6073 525.268 64.9855 516.095 67.6611C507.353 70.2111 511.837 68.2106 508.998 70.0322C508.974 70.1277 508.951 70.2238 508.927 70.3203C512.672 70.2231 521.872 71.0638 530.961 73.4717C540.395 75.9709 546.092 73.059 553.132 69.835C553.388 73.4079 538.017 84.7892 529.694 83.1494C521.371 81.5096 512.045 78.1347 507.808 78.8369C507.006 78.9699 506.295 79.2021 505.666 79.502C504.194 82.9017 502.464 86.3342 500.473 89.7988C498.295 93.7363 495.824 97.5482 493.059 101.234C490.378 104.921 487.655 107.98 484.89 110.409C484.472 110.828 483.843 111.163 483.006 111.414C482.252 111.665 481.371 111.874 480.366 112.042C479.445 112.21 478.482 112.336 477.476 112.42C476.471 112.42 475.549 112.335 474.712 112.168C474.293 112.084 473.789 111.875 473.203 111.54C472.617 111.121 471.988 110.66 471.318 110.157C470.648 109.655 469.978 109.152 469.307 108.649L467.925 107.267C467.506 106.931 466.877 106.303 466.04 105.382C465.286 104.46 464.406 103.413 463.401 102.24C462.396 100.984 461.39 99.7686 460.385 98.5957C459.379 97.339 458.542 96.2075 457.872 95.2021C456.867 96.4588 455.903 97.8416 454.981 99.3496C454.143 100.858 453.263 102.449 452.342 104.125C451.504 105.717 450.625 107.309 449.703 108.9C448.781 110.408 447.86 111.833 446.938 113.174C446.519 113.844 445.765 114.347 444.676 114.682C443.67 115.1 442.414 115.016 440.906 114.43C440.068 114.095 439.314 113.718 438.643 113.299C438.057 112.88 437.554 112.335 437.136 111.665C436.633 110.66 436.173 109.487 435.754 108.146C435.419 106.722 435.125 105.256 434.874 103.748C434.623 102.156 434.455 100.564 434.371 98.9727C434.287 97.2972 434.245 95.7474 434.245 94.3232C434.245 93.2342 434.287 92.0191 434.371 90.6787C434.538 89.2545 434.706 87.7882 434.874 86.2803C435.125 84.7724 435.376 83.306 435.628 81.8818C435.963 80.4576 436.298 79.1583 436.633 77.9854C436.884 77.0639 437.471 76.6035 438.392 76.6035C439.398 76.5197 440.361 76.4775 441.283 76.4775C441.869 76.4776 442.289 76.6454 442.54 76.9805C442.875 77.3156 443.084 77.7347 443.168 78.2373C443.335 78.6561 443.42 79.1166 443.42 79.6191C443.42 80.038 443.378 80.3737 443.294 80.625C442.875 82.8032 442.581 85.191 442.414 87.7881C442.33 90.3851 442.288 92.8564 442.288 95.2021C442.372 97.4642 442.497 99.4338 442.665 101.109C442.832 102.785 443.042 103.79 443.294 104.125C444.132 103.287 445.095 101.863 446.184 99.8525C447.274 97.8418 448.321 95.7054 449.326 93.4434C450.415 91.0975 451.42 88.9189 452.342 86.9082C453.347 84.8138 454.143 83.3476 454.729 82.5098C454.813 82.426 455.065 82.3003 455.483 82.1328C455.902 81.8815 456.406 81.7559 456.992 81.7559C457.578 81.6721 458.123 81.6721 458.626 81.7559C459.212 81.8396 459.673 82.0489 460.008 82.3838C460.678 83.1378 461.433 84.2271 462.27 85.6514C463.108 87.0756 463.987 88.584 464.909 90.1758C465.831 91.7676 466.794 93.3594 467.8 94.9512C468.805 96.543 469.81 97.9257 470.815 99.0986C471.402 99.7689 472.282 100.48 473.455 101.234C474.712 101.988 475.633 102.366 476.22 102.366C477.476 102.366 478.858 101.737 480.366 100.48C481.958 99.2238 483.466 97.8419 484.89 96.334C486.315 94.826 487.487 93.401 488.409 92.0605C489.414 90.7201 490.001 89.9242 490.169 89.6729C492.263 86.7406 494.065 83.5148 495.573 79.9961C497.081 76.3937 498.547 72.5397 499.972 68.4346C500.139 67.9319 500.306 67.2193 500.473 66.2979C500.641 65.3765 500.809 64.4133 500.976 63.4082C501.144 62.3191 501.27 61.3132 501.353 60.3916C501.521 59.4701 501.605 58.7997 501.605 58.3809C501.605 56.7893 501.521 55.5328 501.353 54.6113C501.186 53.606 500.977 52.8513 500.725 52.3486C500.474 51.7623 500.181 51.3019 499.846 50.9668C499.594 50.6317 499.301 50.2961 498.966 49.9609C498.295 49.207 497.248 48.3275 495.824 47.3223C494.484 46.317 493.017 45.2697 491.426 44.1807C489.918 43.0915 488.409 42.0857 486.901 41.1641C485.393 40.1588 484.22 39.3628 483.383 38.7764C483.131 38.5251 482.88 38.1902 482.629 37.7715C482.377 37.3526 482.545 36.5557 483.132 35.3828C483.467 34.9641 484.137 34.6292 485.142 34.3779ZM107.212 56.7471C107.714 56.7471 108.217 56.7893 108.72 56.873C109.222 56.9568 109.809 57.0824 110.479 57.25C111.652 57.4176 112.993 58.0878 114.501 59.2607C116.093 60.3499 117.35 61.5226 118.271 62.7793C118.439 63.0306 118.606 63.4919 118.773 64.1621C118.941 64.8323 119.066 65.5861 119.15 66.4238C119.318 67.1778 119.443 67.9738 119.527 68.8115C119.611 69.5655 119.611 70.1524 119.527 70.5713C119.192 73.2522 118.564 76.0168 117.642 78.8652C116.721 81.63 115.548 84.1854 114.124 86.5312C112.783 88.8771 111.192 90.8879 109.348 92.5635C107.505 94.2391 105.494 95.2862 103.316 95.7051C102.143 96.0402 100.886 96.1658 99.5457 96.082C98.2891 95.9982 97.074 95.6214 95.9012 94.9512C95.9012 94.7839 95.8598 94.7004 95.7762 94.7002V94.3232C95.6086 93.9043 95.5665 93.3175 95.6502 92.5635C95.734 91.7257 96.1531 91.0976 96.9071 90.6787C98.4151 89.9247 99.8812 89.17 101.306 88.416C102.813 87.5782 104.028 86.5311 104.95 85.2744C105.536 84.4367 106.081 83.4729 106.584 82.3838C107.17 81.211 107.673 80.038 108.092 78.8652C108.511 77.6924 108.804 76.5195 108.972 75.3467C109.223 74.1739 109.306 73.1266 109.222 72.2051C109.139 71.1997 108.93 70.3195 108.595 69.5654C108.343 68.8953 108.008 68.3093 107.589 67.8066C107.17 67.304 106.625 67.0527 105.955 67.0527C105.033 67.0528 104.112 67.3874 103.19 68.0576C102.352 68.7278 101.514 69.5238 100.677 70.4453C99.9226 71.2831 99.2523 72.1634 98.6659 73.085C98.0796 73.9225 97.6613 74.5931 97.41 75.0957C97.0749 75.8497 96.6558 76.897 96.1532 78.2373C95.6505 79.494 95.147 80.918 94.6444 82.5098C94.1417 84.1016 93.6814 85.7356 93.2625 87.4111C92.8437 89.0867 92.508 90.5951 92.2567 91.9355C92.0892 93.1081 91.9222 94.197 91.7547 95.2021C91.6709 96.1237 91.6287 97.1718 91.6287 98.3447C91.6288 99.9364 91.7544 101.235 92.0057 102.24C92.3408 103.246 93.1367 104.084 94.3934 104.754C95.5662 105.424 96.7391 105.969 97.9119 106.388C99.1687 106.807 100.468 107.016 101.808 107.016C103.735 107.016 105.704 106.597 107.715 105.759C109.306 105.005 111.066 103.832 112.993 102.24C115.004 100.648 116.889 98.9723 118.648 97.2129C120.407 95.4537 121.957 93.7782 123.298 92.1865C124.722 90.5947 125.686 89.3798 126.188 88.542C126.523 88.1232 127.11 87.9141 127.947 87.9141C128.869 87.8303 129.413 88.0394 129.581 88.542V92.0605C129.246 93.4847 128.283 95.328 126.691 97.5898C125.183 99.7681 123.339 101.947 121.161 104.125C118.983 106.303 116.637 108.314 114.124 110.157C111.694 112 109.39 113.299 107.212 114.053C106.793 114.22 105.913 114.346 104.573 114.43C103.316 114.597 101.976 114.682 100.552 114.682C99.5462 114.682 98.5404 114.639 97.535 114.556C96.6135 114.472 95.8175 114.304 95.1473 114.053C93.8069 113.634 92.4249 112.963 91.0008 112.042C89.6603 111.12 88.4032 110.073 87.2303 108.9C86.0574 107.644 85.0515 106.303 84.2137 104.879C83.4598 103.455 83.0416 101.988 82.9578 100.48C82.6228 97.2131 82.8318 93.6105 83.5858 89.6729C84.3398 85.6515 85.4292 81.8397 86.8534 78.2373C88.0263 75.0536 89.6602 71.9114 91.7547 68.8115C93.9329 65.6281 96.1107 63.1146 98.2889 61.2715C99.9645 59.7634 101.473 58.632 102.813 57.8779C104.238 57.124 105.704 56.7471 107.212 56.7471ZM374.542 11.2549C377.725 10.5009 380.113 10.2909 381.705 10.626C383.38 10.9611 384.595 11.5058 385.349 12.2598C386.355 13.2651 386.899 14.7734 386.983 16.7842C387.151 18.7949 386.983 21.057 386.48 23.5703C386.061 26.0837 385.391 28.7226 384.47 31.4873C383.548 34.2519 382.585 36.891 381.58 39.4043C380.658 41.9177 379.736 44.1807 378.814 46.1914C377.893 48.2019 377.222 49.6683 376.804 50.5898C375.463 53.1868 373.913 56.0352 372.154 59.1348C370.479 62.1509 368.636 65.2931 366.625 68.5605C364.614 71.7442 362.436 74.9277 360.09 78.1113C357.828 81.2949 355.44 84.3107 352.927 87.1592C353.01 88.4996 353.01 89.8824 352.927 91.3066C352.927 92.7308 352.969 94.155 353.053 95.5791C353.22 96.9196 353.471 98.2189 353.806 99.4756C354.142 100.732 354.77 101.863 355.691 102.868C356.78 104.125 358.038 105.089 359.462 105.759C360.97 106.345 362.477 106.764 363.985 107.016C365.493 107.267 366.918 107.393 368.259 107.393H371.651C372.908 108.649 373.578 109.99 373.662 111.414C373.746 112.755 373.075 113.718 371.651 114.305C370.981 114.556 369.808 114.639 368.133 114.556C366.541 114.556 364.781 114.388 362.854 114.053C360.927 113.801 359.042 113.425 357.199 112.922C355.356 112.419 353.89 111.875 352.801 111.288C351.46 110.534 350.287 109.487 349.282 108.146C348.277 106.806 347.397 105.34 346.643 103.748C345.973 102.072 345.429 100.313 345.01 98.4697C344.675 96.6267 344.464 94.8257 344.381 93.0664C343.208 93.7366 342.035 94.407 340.862 95.0771C339.689 95.6635 338.559 96.1661 337.47 96.585C336.632 97.0038 335.668 97.3807 334.579 97.7158C333.574 98.0509 332.693 97.8831 331.939 97.2129C331.688 96.9615 331.521 96.5009 331.437 95.8311C331.437 95.1608 331.479 94.4484 331.562 93.6943C331.646 92.9404 331.772 92.27 331.939 91.6836C332.107 91.0972 332.275 90.7203 332.442 90.5527C334.285 89.296 336.003 88.1645 337.595 87.1592C339.186 86.1538 340.863 84.9811 342.622 83.6406C343.292 83.138 343.711 82.4262 343.879 81.5049C344.13 80.4996 344.297 79.5358 344.381 78.6143C344.464 75.1794 344.716 71.5766 345.135 67.8066C345.637 64.0365 346.266 60.224 347.02 56.3701C347.774 52.5163 348.654 48.7458 349.659 45.0596C350.748 41.2896 351.963 37.6869 353.304 34.252C354.225 31.8225 355.398 29.3511 356.822 26.8379C358.246 24.3245 359.838 22.0202 361.598 19.9258C363.441 17.8313 365.451 16.0295 367.63 14.5215C369.808 12.9297 372.112 11.8414 374.542 11.2549ZM401.713 61.8994C404.896 61.8995 407.661 62.6119 410.007 64.0361C412.353 65.4604 414.28 67.3034 415.788 69.5654C417.38 71.8275 418.552 74.383 419.306 77.2314C420.144 79.9961 420.605 82.8029 420.688 85.6514C420.856 90.8458 420.228 95.3285 418.804 99.0986C417.463 102.785 416.039 105.507 414.531 107.267C412.353 109.78 409.672 111.498 406.488 112.42C403.388 113.258 400.246 113.509 397.062 113.174C394.884 113.006 392.915 112.21 391.156 110.786C389.397 109.278 387.888 107.309 386.632 104.879C385.459 102.366 384.579 99.4753 383.993 96.208C383.49 92.8568 383.365 89.2121 383.616 85.2744C383.784 84.0178 384.16 82.6349 384.747 81.127C385.417 79.6192 386.087 78.7818 386.758 78.6143C387.763 78.363 388.642 78.1951 389.396 78.1113C390.234 78.0275 390.738 78.1954 390.905 78.6143C390.989 78.6156 391.241 78.9924 391.659 79.7451C392.078 80.4991 392.078 81.5885 391.659 83.0127C391.491 83.5154 391.324 84.3948 391.156 85.6514C390.989 86.8242 390.905 88.1649 390.905 89.6729C390.905 91.1809 390.989 92.7314 391.156 94.3232C391.324 95.9147 391.658 97.297 392.161 98.4697C392.664 99.6427 393.293 100.732 394.047 101.737C394.801 102.659 395.722 103.413 396.811 103.999C397.901 104.502 399.115 104.754 400.456 104.754C401.88 104.754 403.43 104.418 405.105 103.748C405.859 103.413 406.655 102.743 407.493 101.737C408.415 100.732 409.253 99.6013 410.007 98.3447C410.844 97.0042 411.515 95.5793 412.017 94.0713C412.604 92.4796 412.939 90.9298 413.022 89.4219C413.106 88.4165 413.065 87.0759 412.897 85.4004C412.814 83.641 412.478 81.8815 411.891 80.1221C411.305 78.2789 410.383 76.5615 409.127 74.9697C407.954 73.2941 406.32 71.9536 404.225 70.9482C402.299 70.1105 400.623 69.6914 399.199 69.6914C397.859 69.6914 396.644 69.9426 395.555 70.4453C394.549 70.8642 393.628 71.4924 392.79 72.3301C392.036 73.0841 391.323 73.8388 390.653 74.5928C390.486 74.7602 390.192 74.8438 389.773 74.8438C389.354 74.8437 388.894 74.8015 388.391 74.7178C387.889 74.5502 387.428 74.3834 387.009 74.2158C386.674 74.0483 386.507 73.8804 386.507 73.7129C386.507 72.0373 386.674 70.6968 387.009 69.6914C387.344 68.6861 388.014 67.6389 389.019 66.5498C390.695 64.8742 392.748 63.7015 395.178 63.0312C397.607 62.2772 399.786 61.8994 401.713 61.8994ZM42.3895 21.5596C43.311 21.5596 44.1492 21.643 44.9032 21.8105C45.6571 21.9781 46.2853 22.1459 46.7879 22.3135C48.3797 22.8999 49.9293 23.7381 51.4373 24.8271C53.0291 25.9163 54.4541 27.1724 55.7108 28.5967C56.9675 30.0209 58.0146 31.6549 58.8524 33.498C59.6902 35.2574 60.1926 37.1426 60.3602 39.1533C60.444 40.4938 60.444 42.0856 60.3602 43.9287C60.3602 45.7718 60.2768 47.6571 60.1092 49.584C59.9417 51.4272 59.7316 53.1867 59.4803 54.8623C59.229 56.5377 58.9365 57.8363 58.6014 58.7578C57.7636 60.9361 56.7577 63.2403 55.5848 65.6699C54.4119 68.0157 53.0713 70.4034 51.5633 72.833C50.1391 75.1788 48.5473 77.4409 46.7879 79.6191C45.0287 81.7135 43.1854 83.5567 41.2586 85.1484C42.9342 85.9862 44.7772 86.6987 46.7879 87.2852C48.8823 87.7878 50.9767 88.2903 53.0711 88.793C53.9927 88.9605 54.873 89.1705 55.7108 89.4219C56.6322 89.5894 57.5118 89.7985 58.3494 90.0498C61.1142 90.8038 63.9209 91.5163 66.7694 92.1865C69.7016 92.773 72.634 93.0664 75.5662 93.0664C76.2364 93.0664 76.7812 93.1077 77.2 93.1914C77.6189 93.2752 78.1636 93.5274 78.8338 93.9463C78.9175 94.1976 78.9598 94.6162 78.9598 95.2021C79.0436 95.7048 79.0013 96.2496 78.8338 96.8359C78.7501 97.4223 78.5409 97.9671 78.2059 98.4697C77.9546 98.8886 77.5767 99.2242 77.0741 99.4756C76.2363 99.8944 74.9798 100.188 73.3045 100.355C71.7127 100.523 70.0788 100.606 68.4032 100.606C66.3089 100.606 64.5078 100.481 62.9998 100.229C60.4027 99.8106 57.9728 99.3915 55.7108 98.9727C53.5326 98.5538 51.2704 98.0925 48.9246 97.5898C46.6626 97.0872 44.2327 96.5013 41.6356 95.8311C39.0384 95.077 36.0639 94.239 32.7127 93.3174C32.6289 93.3174 32.3355 93.2339 31.8328 93.0664C31.3302 92.8151 30.7855 92.5216 30.1991 92.1865C29.6127 91.8514 29.0267 91.5157 28.4403 91.1807C27.9377 90.7619 27.602 90.3436 27.4344 89.9248C27.0155 89.0032 26.8477 88.0808 26.9315 87.1592C27.099 86.154 27.2669 85.4001 27.4344 84.8975C27.602 84.5623 27.8954 84.2689 28.3143 84.0176C28.8169 83.6825 29.3195 83.4312 29.8221 83.2637C30.3248 83.0123 30.786 82.8445 31.2049 82.7607C31.6235 82.5933 31.9586 82.5098 32.2098 82.5098C36.8177 79.1585 40.6714 74.8436 43.7713 69.5654C46.8711 64.2036 49.092 58.5489 50.4325 52.6006C50.9351 50.5061 51.1864 48.2853 51.1864 45.9395C51.1864 44.8504 51.1029 43.8866 50.9354 43.0488C50.8516 42.2111 50.6838 41.1638 50.4325 39.9072C50.0135 37.9804 49.2176 36.3885 48.0448 35.1318C46.8718 33.7913 45.4469 32.7021 43.7713 31.8643C42.1797 31.1105 40.7976 31.0269 39.6248 31.6133C38.5357 32.1997 37.1108 33.289 35.3514 34.8809C35.1001 35.2998 34.7653 35.9703 34.3465 36.8916C33.9276 37.8131 33.4251 38.8604 32.8387 40.0332C32.336 41.2061 31.7914 42.421 31.2049 43.6777C30.7023 44.8505 30.2832 45.8556 29.9481 46.6934C29.5292 47.1123 28.6911 47.4891 27.4344 47.8242C26.1777 48.1593 24.6694 48.3271 22.91 48.3271L22.2821 46.9453C22.1983 46.2752 22.1983 45.4791 22.2821 44.5576C22.4496 43.5523 22.6587 42.5885 22.91 41.667C23.1613 40.6618 23.4548 39.7401 23.7899 38.9023C24.125 37.9808 24.4606 37.2683 24.7957 36.7656C24.9633 36.4304 25.3824 35.6766 26.0526 34.5039C26.8066 33.331 27.5603 32.116 28.3143 30.8594C29.1521 29.6027 29.9058 28.4712 30.576 27.4658C31.33 26.3767 31.8335 25.7486 32.0848 25.5811V25.707C33.7604 24.1152 35.4778 23.0259 37.2371 22.4395C39.0803 21.853 40.7977 21.5596 42.3895 21.5596ZM377.809 20.0518C377.307 19.968 376.72 20.0092 376.05 20.1768C375.463 20.3443 374.835 20.5966 374.165 20.9316C373.495 21.1829 372.992 21.4756 372.657 21.8105C370.395 23.7375 368.468 25.8739 366.876 28.2197C365.284 30.5656 363.65 33.7078 361.974 37.6455C360.969 40.0751 359.922 42.7985 358.833 45.8145C357.828 48.8304 356.864 51.972 355.942 55.2393C355.021 58.5066 354.267 61.8159 353.681 65.167C353.094 68.5182 352.759 71.7439 352.676 74.8438C353.681 73.8384 354.854 72.3721 356.194 70.4453C357.618 68.5184 359.21 66.0051 360.97 62.9053C362.813 59.7216 364.824 55.9091 367.002 51.4688C369.18 47.0285 371.61 41.7927 374.291 35.7607C374.794 34.5878 375.296 33.3307 375.799 31.9902C376.385 30.566 376.888 29.1833 377.306 27.8428C377.725 26.4186 378.061 25.1201 378.312 23.9473C378.564 22.6907 378.647 21.6434 378.563 20.8057C378.563 20.3868 378.312 20.1355 377.809 20.0518ZM332.446 17.1611C334.457 17.1611 335.84 17.538 336.594 18.292C336.761 18.5433 336.845 19.1717 336.845 20.1768C336.928 21.0983 336.635 21.7686 335.965 22.1875L334.834 22.5645C334.164 22.8158 333.41 23.068 332.572 23.3193C331.734 23.5706 331.064 23.6963 330.561 23.6963C328.886 24.1152 327.168 24.5755 325.409 25.0781C323.901 25.497 322.183 25.9995 320.256 26.5859C318.329 27.0886 316.402 27.5921 314.475 28.0947C312.548 28.6812 310.621 29.2258 308.694 29.7285C306.851 30.2311 305.176 30.6915 303.668 31.1104C302.244 31.5292 301.029 31.8649 300.023 32.1162C299.018 32.3675 298.431 32.4932 298.264 32.4932L292.86 33.75C292.441 33.9175 291.771 34.3779 290.849 35.1318C289.928 35.8858 289.215 36.514 288.713 37.0166C288.294 37.5193 287.666 37.6449 286.828 37.3936C285.99 37.1422 285.403 36.8076 285.068 36.3887C284.649 35.7184 284.272 34.5869 283.937 32.9951C283.602 31.3199 283.56 30.0633 283.811 29.2256C284.063 28.5553 284.566 28.0107 285.32 27.5918C286.074 27.0892 286.828 26.7122 287.582 26.4609C289.006 25.9583 290.975 25.4136 293.488 24.8271C296.085 24.1569 298.85 23.4866 301.782 22.8164C304.798 22.1462 307.815 21.4759 310.831 20.8057C313.847 20.0516 316.57 19.4236 319 18.9209L325.157 17.5381H325.911C326.33 17.5381 326.791 17.4959 327.294 17.4121C328.802 17.2446 330.519 17.1611 332.446 17.1611Z" fill="url(#paint0_linear_43_1606)"/>
<defs>
<linearGradient id="paint0_linear_43_1606" x1="264.74" y1="-48.216" x2="264.74" y2="151.257" gradientUnits="userSpaceOnUse">
<stop offset="0.15" stop-color="#F2F8FF"/>
<stop offset="1" stop-color="#0067DB"/>
</linearGradient>
</defs>
</svg>
