<svg width="36" height="36" viewBox="0 0 36 36" fill="none" xmlns="http://www.w3.org/2000/svg">
<path d="M6.95374 7.74194C7.78858 12.4774 12.5884 15.0962 14.8961 15.8191C16.7055 15.4516 20.6914 15.0412 24.2389 15.9685C27.9819 16.9468 30.9847 14.8538 32.0182 13.6853C32.0054 15.9586 28.3665 20.4959 25.2164 20.1765C22.0667 19.8571 21.1394 19.9762 18.2633 20.8152C15.3873 21.6541 17.0773 20.9233 15.8893 21.6531C16.971 21.5985 19.9663 21.8538 22.9244 22.6375C25.8826 23.4211 27.6693 22.5078 29.8766 21.4968C29.9567 22.6172 25.1376 26.1855 22.528 25.6716C19.9183 25.1575 17.4141 23.9681 16.0641 24.1931C14.9031 24.3867 14.5164 25.355 14.3229 25.6716L12.8737 27.7859L13.3356 24.6296C12.0081 25.805 10.1287 26.8161 8.27015 26.0632C5.57224 24.9702 4.8538 22.8753 4.83167 21.9646C7.39884 23.5215 8.7377 23.4116 9.08655 23.1619C3.88864 20.8647 3.54838 16.3858 4.02796 14.4333C4.61302 17.1026 7.78153 18.8984 9.29261 19.4626C8.63582 18.5821 6.89888 16.514 6.30921 14.4333C5.77165 12.5364 6.11347 9.24498 6.95374 7.74194Z" fill="url(#paint0_linear_43_316)"/>
<defs>
<linearGradient id="paint0_linear_43_316" x1="3.87085" y1="11.9536" x2="31.2282" y2="15.174" gradientUnits="userSpaceOnUse">
<stop stop-color="#4794FD"/>
<stop offset="1" stop-color="#0067DB"/>
</linearGradient>
</defs>
</svg>
