<svg width="147" height="36" viewBox="0 0 147 36" fill="none" xmlns="http://www.w3.org/2000/svg">
<path d="M6.95374 7.74194C7.78858 12.4774 12.5884 15.0962 14.8961 15.8191C16.7055 15.4516 20.6914 15.0412 24.2389 15.9685C27.9819 16.9468 30.9847 14.8538 32.0182 13.6853C32.0054 15.9586 28.3665 20.4959 25.2164 20.1765C22.0667 19.8571 21.1394 19.9762 18.2633 20.8152C15.3873 21.6541 17.0773 20.9233 15.8893 21.6531C16.971 21.5985 19.9663 21.8538 22.9244 22.6375C25.8826 23.4211 27.6693 22.5078 29.8766 21.4968C29.9567 22.6172 25.1376 26.1855 22.528 25.6716C19.9183 25.1575 17.4141 23.9681 16.0641 24.1931C14.9031 24.3867 14.5164 25.355 14.3229 25.6716L12.8737 27.7859L13.3356 24.6296C12.0081 25.805 10.1287 26.8161 8.27015 26.0632C5.57224 24.9702 4.8538 22.8753 4.83167 21.9646C7.39884 23.5215 8.7377 23.4116 9.08655 23.1619C3.88864 20.8647 3.54838 16.3858 4.02796 14.4333C4.61302 17.1026 7.78153 18.8984 9.29261 19.4626C8.63582 18.5821 6.89888 16.514 6.30921 14.4333C5.77165 12.5364 6.11347 9.24498 6.95374 7.74194Z" fill="url(#paint0_linear_43_1666)"/>
<path d="M50.7953 14.4507C50.8863 14.0712 50.9319 13.6689 50.9319 13.2439C50.9319 13.0465 50.9167 12.8719 50.8863 12.7201C50.8712 12.5683 50.8408 12.3786 50.7953 12.1509C50.7194 11.8017 50.5751 11.5133 50.3626 11.2856C50.1501 11.0427 49.892 10.8453 49.5884 10.6935C49.3 10.5569 49.0495 10.5417 48.837 10.648C48.6396 10.7542 48.3815 10.9516 48.0628 11.24C48.0172 11.3159 47.9565 11.4374 47.8806 11.6044C47.8047 11.7713 47.7136 11.9611 47.6073 12.1736C47.5163 12.3862 47.4176 12.6063 47.3113 12.834C47.2202 13.0465 47.1443 13.2287 47.0836 13.3805C47.0077 13.4564 46.8559 13.5247 46.6282 13.5854C46.4005 13.6461 46.1272 13.6765 45.8084 13.6765L45.6946 13.426C45.6794 13.3046 45.6794 13.1604 45.6946 12.9934C45.725 12.8112 45.7629 12.6366 45.8084 12.4697C45.854 12.2875 45.9071 12.1205 45.9678 11.9687C46.0286 11.8017 46.0893 11.6727 46.15 11.5816C46.1804 11.5209 46.2563 11.3842 46.3777 11.1717C46.5143 10.9592 46.651 10.7391 46.7876 10.5114C46.9394 10.2836 47.076 10.0787 47.1975 9.89655C47.3341 9.6992 47.4252 9.58534 47.4707 9.55498V9.57775C47.7743 9.28932 48.0855 9.09198 48.4043 8.98571C48.7383 8.87945 49.0495 8.82632 49.3379 8.82632C49.5049 8.82632 49.6567 8.8415 49.7933 8.87186C49.93 8.90222 50.0438 8.93258 50.1349 8.96294C50.4233 9.0692 50.7042 9.22101 50.9774 9.41836C51.2659 9.6157 51.5239 9.84341 51.7516 10.1015C51.9793 10.3596 52.1691 10.6556 52.3209 10.9895C52.4727 11.3083 52.5638 11.6499 52.5942 12.0142C52.6093 12.2571 52.6093 12.5456 52.5942 12.8795C52.5942 13.2135 52.579 13.5551 52.5486 13.9042C52.5183 14.2382 52.4803 14.557 52.4348 14.8606C52.3892 15.1642 52.3361 15.3995 52.2754 15.5665C52.1236 15.9612 51.9414 16.3786 51.7289 16.8189C51.5163 17.2439 51.2734 17.6766 51.0002 18.1168C50.7421 18.5419 50.4537 18.9518 50.1349 19.3464C49.8161 19.726 49.4821 20.0599 49.133 20.3484C49.4366 20.5002 49.7706 20.6292 50.1349 20.7355C50.5144 20.8265 50.8939 20.9176 51.2734 21.0087C51.4404 21.0391 51.5998 21.077 51.7516 21.1226C51.9186 21.1529 52.078 21.1909 52.2298 21.2364C52.7308 21.3731 53.2393 21.5021 53.7555 21.6235C54.2868 21.7298 54.8181 21.7829 55.3494 21.7829C55.4709 21.7829 55.5695 21.7905 55.6454 21.8057C55.7214 21.8209 55.82 21.8664 55.9415 21.9423C55.9566 21.9879 55.9642 22.0638 55.9642 22.17C55.9794 22.2611 55.9718 22.3598 55.9415 22.4661C55.9263 22.5723 55.8883 22.671 55.8276 22.7621C55.7821 22.838 55.7138 22.8987 55.6227 22.9442C55.4709 23.0201 55.2432 23.0733 54.9396 23.1036C54.6511 23.134 54.3551 23.1492 54.0515 23.1492C53.672 23.1492 53.3456 23.1264 53.0723 23.0809C52.6017 23.005 52.1615 22.9291 51.7516 22.8532C51.3569 22.7773 50.9471 22.6938 50.522 22.6027C50.1121 22.5116 49.6719 22.4053 49.2013 22.2839C48.7307 22.1473 48.1918 21.9955 47.5846 21.8285C47.5694 21.8285 47.5163 21.8133 47.4252 21.7829C47.3341 21.7374 47.2354 21.6843 47.1292 21.6235C47.0229 21.5628 46.9166 21.5021 46.8104 21.4414C46.7193 21.3655 46.6586 21.2896 46.6282 21.2137C46.5523 21.0467 46.5219 20.8797 46.5371 20.7127C46.5675 20.5305 46.5978 20.3939 46.6282 20.3028C46.6586 20.2421 46.7117 20.189 46.7876 20.1434C46.8787 20.0827 46.9698 20.0372 47.0608 20.0068C47.1519 19.9613 47.2354 19.9309 47.3113 19.9157C47.3872 19.8854 47.4479 19.8702 47.4935 19.8702C48.3284 19.263 49.0267 18.4812 49.5884 17.5248C50.1501 16.5532 50.5524 15.5285 50.7953 14.4507ZM43.7591 26.7697C43.7591 26.6331 43.7591 26.4509 43.7591 26.2232C43.7591 25.9955 43.7515 25.7451 43.7363 25.4718C43.7363 25.1986 43.7287 24.9177 43.7135 24.6293C43.6983 24.3408 43.6832 24.0676 43.668 23.8095C43.6528 23.6425 43.63 23.3617 43.5997 22.967C43.5845 22.5723 43.5617 22.1321 43.5314 21.6463C43.501 21.1453 43.4706 20.6292 43.4403 20.0979C43.4099 19.5666 43.3796 19.0808 43.3492 18.6405C43.334 18.2003 43.3188 17.836 43.3037 17.5475C43.3037 17.2591 43.3112 17.0997 43.3264 17.0694V17.0921C43.3264 16.9707 43.3264 16.8189 43.3264 16.6367C43.3416 16.4394 43.3568 16.2344 43.372 16.0219C43.3871 15.8094 43.3947 15.5893 43.3947 15.3615C43.4099 15.1187 43.4175 14.8758 43.4175 14.6329C43.4479 14.2382 43.463 13.8814 43.463 13.5627C43.4782 13.2439 43.4858 13.0237 43.4858 12.9023C43.4858 12.7505 43.4934 12.5 43.5086 12.1509C43.5389 11.7865 43.5845 11.3842 43.6452 10.944C43.7059 10.5038 43.7818 10.0484 43.8729 9.57775C43.9792 9.10716 44.1006 8.6821 44.2373 8.30259C44.3891 7.90789 44.5636 7.5891 44.761 7.34621C44.9583 7.08814 45.186 6.95911 45.4441 6.95911C45.7629 6.95911 46.1121 6.98947 46.4916 7.05019C46.8711 7.11091 47.2126 7.17922 47.5163 7.25513C47.6073 7.28549 47.6757 7.36898 47.7212 7.50561C47.7819 7.62705 47.8123 7.76368 47.8123 7.91548C47.8275 8.05211 47.8123 8.18114 47.7667 8.30259C47.7364 8.40885 47.6908 8.46198 47.6301 8.46198C47.3872 8.41644 47.1671 8.37849 46.9698 8.34813C46.8028 8.31777 46.6358 8.30259 46.4688 8.30259C46.3018 8.28741 46.2031 8.295 46.1728 8.32536C46.1121 8.35572 46.0589 8.41644 46.0134 8.50752C45.9678 8.58343 45.9299 8.67451 45.8995 8.78077C45.8692 8.87186 45.8388 8.97053 45.8084 9.0768C45.7933 9.16788 45.7781 9.24378 45.7629 9.3045C45.5959 10.2761 45.4441 11.2097 45.3075 12.1053C45.1709 13.001 45.1177 13.7752 45.1481 14.4279V21.4414C45.1481 21.6843 45.1557 21.9803 45.1709 22.3294C45.2012 22.6786 45.2316 23.0353 45.2619 23.3997C45.2923 23.7792 45.3227 24.1435 45.353 24.4927C45.3834 24.8418 45.3986 25.1454 45.3986 25.4035V26.9974C45.3682 27.1644 45.2999 27.3011 45.1936 27.4073C45.0874 27.5136 44.9583 27.5895 44.8065 27.635C44.6699 27.6958 44.5181 27.7185 44.3511 27.7033C44.1841 27.7033 44.0247 27.6654 43.8729 27.5895L43.7591 26.7697ZM56.6886 23.1264C56.6279 22.5344 56.6659 21.8816 56.8025 21.1681C56.9391 20.4394 57.1365 19.7487 57.3945 19.096C57.6071 18.5191 57.9031 17.9498 58.2826 17.3882C58.6773 16.8113 59.072 16.3559 59.4667 16.0219C59.7703 15.7487 60.0435 15.5437 60.2864 15.4071C60.5445 15.2705 60.8102 15.2022 61.0834 15.2022C61.1745 15.2022 61.2656 15.2097 61.3567 15.2249C61.4477 15.2401 61.554 15.2629 61.6754 15.2932C61.888 15.3236 62.1309 15.445 62.4041 15.6576C62.6925 15.8549 62.9203 16.0674 63.0872 16.2952C63.1176 16.3407 63.148 16.4242 63.1783 16.5456C63.2087 16.6671 63.2315 16.8037 63.2466 16.9555C63.277 17.0921 63.2998 17.2363 63.315 17.3882C63.3301 17.5248 63.3301 17.631 63.315 17.7069C63.2542 18.1927 63.1404 18.6937 62.9734 19.2098C62.8064 19.7108 62.5939 20.1738 62.3358 20.5988C62.0929 21.0239 61.8045 21.3882 61.4705 21.6918C61.1365 21.9955 60.7722 22.1852 60.3775 22.2611C60.165 22.3218 59.9373 22.3446 59.6944 22.3294C59.4667 22.3142 59.2466 22.2459 59.034 22.1245C59.034 22.0941 59.0264 22.0789 59.0113 22.0789C59.0113 22.0638 59.0113 22.041 59.0113 22.0106C58.9809 21.9347 58.9733 21.8285 58.9885 21.6918C59.0037 21.54 59.0796 21.4262 59.2162 21.3503C59.4894 21.2137 59.7551 21.077 60.0132 20.9404C60.2864 20.7886 60.5065 20.5988 60.6735 20.3711C60.7798 20.2193 60.8785 20.0448 60.9696 19.8474C61.0758 19.6349 61.1669 19.4223 61.2428 19.2098C61.3187 18.9973 61.3718 18.7848 61.4022 18.5722C61.4477 18.3597 61.4629 18.17 61.4477 18.003C61.4326 17.8208 61.3946 17.6614 61.3339 17.5248C61.2883 17.4033 61.2276 17.2971 61.1517 17.206C61.0758 17.1149 60.9771 17.0694 60.8557 17.0694C60.6887 17.0694 60.5217 17.1301 60.3547 17.2515C60.2029 17.373 60.0511 17.5172 59.8993 17.6842C59.7627 17.836 59.6413 17.9954 59.535 18.1624C59.4287 18.3142 59.3528 18.4356 59.3073 18.5267C59.2466 18.6633 59.1707 18.8531 59.0796 19.096C58.9885 19.3237 58.8974 19.5817 58.8063 19.8702C58.7152 20.1586 58.6317 20.4546 58.5558 20.7582C58.4799 21.0618 58.4192 21.3351 58.3737 21.578C58.3433 21.7905 58.313 21.9879 58.2826 22.17C58.2674 22.337 58.2598 22.5268 58.2598 22.7393C58.2598 23.0277 58.2826 23.263 58.3281 23.4452C58.3889 23.6274 58.5331 23.7792 58.7608 23.9006C58.9733 24.0221 59.1858 24.1207 59.3984 24.1966C59.6261 24.2725 59.8614 24.3105 60.1043 24.3105C60.4534 24.3105 60.8102 24.2346 61.1745 24.0828C61.4629 23.9462 61.7817 23.7336 62.1309 23.4452C62.4952 23.1568 62.8368 22.8532 63.1556 22.5344C63.4743 22.2156 63.7552 21.912 63.9981 21.6235C64.2561 21.3351 64.4307 21.115 64.5218 20.9632C64.5825 20.8873 64.6888 20.8493 64.8406 20.8493C65.0076 20.8341 65.1063 20.8721 65.1366 20.9632V21.6008C65.0759 21.8588 64.9013 22.1928 64.6129 22.6027C64.3396 22.9974 64.0057 23.3921 63.611 23.7868C63.2163 24.1815 62.7912 24.5458 62.3358 24.8798C61.8956 25.2137 61.4781 25.449 61.0834 25.5857C61.0075 25.616 60.8481 25.6388 60.6052 25.654C60.3775 25.6843 60.1346 25.6995 59.8766 25.6995C59.6944 25.6995 59.5122 25.6919 59.3301 25.6767C59.1631 25.6616 59.0189 25.6312 58.8974 25.5857C58.6545 25.5098 58.404 25.3883 58.146 25.2213C57.9031 25.0543 57.6754 24.8646 57.4628 24.6521C57.2503 24.4243 57.0681 24.1815 56.9163 23.9234C56.7797 23.6653 56.7038 23.3997 56.6886 23.1264ZM66.8919 25.95C66.7553 25.8589 66.6111 25.7299 66.4593 25.5629C66.3227 25.4111 66.2012 25.2137 66.095 24.9708C66.0039 24.728 65.9356 24.4243 65.89 24.06C65.8597 23.6957 65.8748 23.263 65.9356 22.7621C65.9811 22.4129 66.0874 21.9955 66.2543 21.5097C66.4365 21.0239 66.6415 20.5381 66.8692 20.0523C67.0969 19.5514 67.3246 19.0732 67.5523 18.6178C67.78 18.1472 67.9622 17.7601 68.0988 17.4565C68.1443 17.3654 68.2126 17.2439 68.3037 17.0921C68.3948 16.9251 68.4859 16.7582 68.577 16.5912C68.6832 16.4242 68.7819 16.2724 68.873 16.1358C68.9793 15.984 69.0628 15.8701 69.1235 15.7942C69.169 15.7487 69.2221 15.7031 69.2829 15.6576C69.3436 15.612 69.4423 15.5741 69.5789 15.5437C69.7155 15.4982 69.9053 15.4678 70.1482 15.4526C70.4062 15.4223 70.7554 15.4071 71.1956 15.4071C71.2867 15.4071 71.3474 15.4526 71.3778 15.5437C71.4081 15.6348 71.4157 15.7487 71.4006 15.8853C71.3854 16.0219 71.3474 16.1661 71.2867 16.3179C71.2412 16.4545 71.188 16.576 71.1273 16.6823C70.8844 16.8189 70.6567 16.9631 70.4442 17.1149C70.262 17.2363 70.0798 17.3806 69.8977 17.5475C69.7155 17.6994 69.5789 17.8587 69.4878 18.0257C69.0931 18.7544 68.7136 19.4755 68.3493 20.189C67.9849 20.9025 67.7496 21.6083 67.6434 22.3067C67.5978 22.6254 67.5599 22.9215 67.5295 23.1947C67.5143 23.4528 67.5295 23.6805 67.5751 23.8778C67.6358 24.0752 67.7345 24.2346 67.8711 24.356C68.0229 24.4775 68.2278 24.5458 68.4859 24.561C68.5618 24.561 68.6605 24.5306 68.7819 24.4699C68.9034 24.4092 69.0324 24.3105 69.169 24.1739C69.3056 24.0221 69.4347 23.8399 69.5561 23.6274C69.6776 23.3997 69.7838 23.134 69.8749 22.8304C70.0267 22.3294 70.1558 21.912 70.262 21.578C70.3683 21.244 70.4594 20.948 70.5353 20.6899C70.5656 20.5381 70.6112 20.4167 70.6719 20.3256C70.7478 20.2193 70.8161 20.1282 70.8768 20.0523C70.9375 19.9764 71.0135 19.9157 71.1045 19.8702C71.1804 19.8246 71.2867 19.7943 71.4233 19.7791C71.5751 19.7487 71.7269 19.7411 71.8787 19.7563C72.0457 19.7563 72.2051 19.7715 72.3569 19.8019C72.5087 19.817 72.6302 19.8398 72.7213 19.8702C72.949 19.9461 73.1919 20.1282 73.4499 20.4167C73.7232 20.7051 73.9888 21.0315 74.2469 21.3958C74.5202 21.745 74.7858 22.0941 75.0439 22.4433C75.302 22.7773 75.5373 23.0201 75.7498 23.1719C75.9016 23.2478 76.0534 23.3162 76.2052 23.3769C76.3266 23.4376 76.4557 23.4907 76.5923 23.5363C76.7441 23.5818 76.8807 23.6122 77.0022 23.6274C77.3969 23.6881 77.7384 23.7488 78.0269 23.8095C78.3153 23.8703 78.5658 23.9006 78.7783 23.9006C78.9908 23.9462 79.0895 24.0448 79.0743 24.1966C79.0592 24.3333 78.9605 24.4547 78.7783 24.561C78.5202 24.6976 78.2774 24.7963 78.0496 24.857C77.8219 24.9025 77.6018 24.9405 77.3893 24.9708C77.1768 24.986 76.9566 24.9936 76.7289 24.9936C76.5012 24.9784 76.2507 24.9708 75.9775 24.9708C75.8712 24.9708 75.7498 24.9557 75.6132 24.9253C75.4765 24.8798 75.3475 24.8266 75.2261 24.7659C75.0743 24.7052 74.9224 24.6369 74.7706 24.561C74.5429 24.3636 74.338 24.1663 74.1558 23.9689C73.9888 23.7564 73.8219 23.5363 73.6549 23.3086C73.4879 23.0809 73.3057 22.838 73.1084 22.5799C72.911 22.3218 72.6681 22.0334 72.3797 21.7146C72.1824 21.5021 72.0078 21.3655 71.856 21.3047C71.7042 21.2288 71.6131 21.3199 71.5827 21.578L70.9451 23.9234C70.8085 24.2574 70.6795 24.5382 70.558 24.7659C70.4518 24.9936 70.3379 25.191 70.2165 25.3579C70.095 25.5249 69.9584 25.6691 69.8066 25.7906C69.67 25.912 69.503 26.0335 69.3056 26.1549C69.169 26.246 68.9868 26.3067 68.7591 26.3371C68.5466 26.3675 68.3189 26.3675 68.076 26.3371C67.8483 26.3067 67.6282 26.2536 67.4157 26.1777C67.2031 26.117 67.0286 26.0411 66.8919 25.95ZM85.9995 22.6254C85.7111 23.1719 85.4151 23.635 85.1115 24.0145C84.8078 24.3788 84.5194 24.6748 84.2462 24.9025C83.9729 25.1302 83.7224 25.3048 83.4947 25.4263C83.2822 25.5325 83.1076 25.6084 82.971 25.654C82.4397 25.8361 81.9235 25.8513 81.4226 25.6995C80.9368 25.5629 80.5042 25.3048 80.1246 24.9253C79.7451 24.5458 79.4339 24.0828 79.191 23.5363C78.9633 22.9746 78.8495 22.3826 78.8495 21.7602C78.8495 20.9708 78.8722 20.2497 78.9178 19.5969C78.9785 18.929 79.1759 18.3521 79.5098 17.8663C79.525 17.8208 79.6085 17.6918 79.7603 17.4792C79.9121 17.2515 80.117 17.0162 80.3751 16.7733C80.6484 16.5153 80.9672 16.28 81.3315 16.0674C81.6958 15.8549 82.0981 15.7335 82.5383 15.7031C82.6598 15.7031 82.8116 15.7259 82.9938 15.7714C83.1759 15.8018 83.3505 15.8473 83.5175 15.908C83.6997 15.9536 83.8591 15.9991 83.9957 16.0447C84.1323 16.0902 84.2158 16.1206 84.2462 16.1358C84.398 16.1358 84.5118 16.1813 84.5877 16.2724C84.6788 16.3483 84.7471 16.4545 84.7927 16.5912C84.8382 16.7126 84.8686 16.8568 84.8837 17.0238C84.8989 17.1756 84.9141 17.335 84.9293 17.502C84.8078 17.502 84.656 17.4944 84.4739 17.4792C84.3069 17.4489 84.1247 17.4185 83.9274 17.3882C83.7452 17.3578 83.563 17.335 83.3809 17.3198C83.2139 17.2895 83.0773 17.2743 82.971 17.2743C82.5156 17.2743 82.1285 17.4033 81.8097 17.6614C81.5061 17.9043 81.2556 18.2231 81.0582 18.6178C80.8761 19.0125 80.747 19.4527 80.6711 19.9385C80.5952 20.4091 80.5725 20.8721 80.6028 21.3275C80.618 21.5856 80.6332 21.8436 80.6484 22.1017C80.6635 22.3598 80.7015 22.6027 80.7622 22.8304C80.8229 23.0581 80.9216 23.2706 81.0582 23.468C81.21 23.6501 81.415 23.8019 81.6731 23.9234C81.9008 24.0296 82.1133 24.0752 82.3106 24.06C82.508 24.0448 82.6977 23.9993 82.8799 23.9234C83.0621 23.8323 83.2367 23.7184 83.4036 23.5818C83.5706 23.43 83.7224 23.2706 83.8591 23.1036C84.026 22.9063 84.1778 22.7165 84.3145 22.5344C84.4511 22.337 84.5801 22.1093 84.7016 21.8512C84.823 21.578 84.9369 21.2592 85.0431 20.8949C85.1494 20.5153 85.2557 20.0448 85.3619 19.4831C85.4682 18.9062 85.5669 18.2231 85.658 17.4337C85.7642 16.6443 85.8781 15.7031 85.9995 14.6101C86.0147 14.4128 86.0375 14.1319 86.0678 13.7676C86.1134 13.4033 86.1589 13.001 86.2045 12.5607C86.25 12.1053 86.2955 11.6423 86.3411 11.1717C86.4018 10.6859 86.4549 10.2381 86.5005 9.82823C86.5612 9.40318 86.6219 9.03884 86.6826 8.73523C86.7434 8.43162 86.8041 8.22668 86.8648 8.12042L87.7301 8.34813C88.0185 8.34813 88.1552 8.59102 88.14 9.0768C88.1248 9.56257 88.0413 10.3292 87.8895 11.3767C87.8743 11.4526 87.844 11.6423 87.7984 11.9459C87.7529 12.2495 87.6997 12.6139 87.639 13.0389C87.5935 13.464 87.5328 13.9194 87.4568 14.4052C87.3961 14.891 87.3354 15.3464 87.2747 15.7714C87.2291 16.1965 87.1836 16.5608 87.1381 16.8644C87.1077 17.168 87.0925 17.3578 87.0925 17.4337C87.0925 17.8739 87.1001 18.3597 87.1153 18.891C87.1456 19.4223 87.176 19.9385 87.2064 20.4394C87.2519 20.9404 87.2975 21.3882 87.343 21.7829C87.4037 22.1776 87.4644 22.4585 87.5252 22.6254C87.6162 22.9291 87.6997 23.1947 87.7756 23.4224C87.8515 23.635 87.935 23.8399 88.0261 24.0372C88.1172 24.2194 88.2159 24.4092 88.3221 24.6065C88.4436 24.7887 88.5802 24.9936 88.732 25.2213C88.732 25.2517 88.732 25.2896 88.732 25.3352C88.732 25.3655 88.7244 25.4111 88.7092 25.4718C88.6941 25.5477 88.6637 25.6312 88.6182 25.7223C88.5726 25.8134 88.4967 25.9348 88.3905 26.0866C88.1931 26.3295 87.9047 26.3295 87.5252 26.0866C87.3582 25.9955 87.214 25.8665 87.0925 25.6995C86.9711 25.5477 86.8572 25.3731 86.751 25.1758C86.6447 24.9633 86.546 24.7507 86.4549 24.5382C86.379 24.3257 86.3031 24.1207 86.2272 23.9234L85.9995 22.6254ZM100.619 12.4241C100.665 12.5 100.68 12.6898 100.665 12.9934C100.665 13.297 100.657 13.5551 100.642 13.7676C100.642 13.8131 100.635 13.8587 100.619 13.9042C100.619 13.9498 100.619 13.9877 100.619 14.0181C100.619 14.0788 100.604 14.2306 100.574 14.4735C100.544 14.7164 100.513 14.9669 100.483 15.2249C100.437 15.5285 100.399 15.8701 100.369 16.2496C100.323 16.4773 100.285 16.7582 100.255 17.0921C100.225 17.4109 100.194 17.6766 100.164 17.8891C100.149 17.965 100.141 18.0257 100.141 18.0713C100.141 18.1016 100.141 18.132 100.141 18.1624C100.065 18.6481 100.02 19.0808 100.005 19.4603C100.005 19.8398 100.005 20.1207 100.005 20.3028C100.005 20.3787 99.9591 20.485 99.868 20.6216C99.7921 20.7582 99.7314 20.8114 99.6859 20.781C99.61 20.781 99.5037 20.781 99.3671 20.781C99.2304 20.7658 99.0938 20.7431 98.9572 20.7127C98.8206 20.6823 98.6991 20.6368 98.5929 20.5761C98.5018 20.5002 98.4562 20.4015 98.4562 20.28C98.4562 20.1282 98.4714 19.8854 98.5018 19.5514C98.5473 19.2022 98.5853 18.8455 98.6156 18.4812C98.646 18.2231 98.6763 17.9726 98.7067 17.7297C98.7371 17.4716 98.7523 17.1908 98.7523 16.8872C98.6612 16.9176 98.517 16.9631 98.3196 17.0238C98.1374 17.0694 97.9173 17.1225 97.6592 17.1832C97.4012 17.2439 97.1203 17.3122 96.8167 17.3882C96.5131 17.4641 96.2171 17.5324 95.9287 17.5931C95.6554 17.6538 95.3898 17.7145 95.1317 17.7753C94.8736 17.836 94.6383 17.8967 94.4258 17.9574C94.2284 18.003 94.0539 18.0409 93.9021 18.0713C93.7654 18.1016 93.6819 18.1244 93.6516 18.1396C93.4694 18.1851 93.3404 18.3218 93.2645 18.5495C93.2038 18.762 93.1734 19.0201 93.1734 19.3237C93.1734 19.5969 93.1886 19.8929 93.2189 20.2117C93.2645 20.5153 93.3024 20.8038 93.3328 21.077L93.4011 21.578C93.4163 21.6539 93.4315 21.7981 93.4466 22.0106C93.477 22.208 93.515 22.4357 93.5605 22.6938C93.606 22.9974 93.6516 23.3313 93.6971 23.6957C93.7578 24.0448 93.811 24.3788 93.8565 24.6976C93.9172 25.0164 93.9628 25.2972 93.9931 25.5401C94.0235 25.783 94.0387 25.9424 94.0387 26.0183V27.4301C94.0387 27.4605 93.978 27.4984 93.8565 27.5439C93.7351 27.5895 93.5984 27.6199 93.4466 27.635C93.2948 27.6654 93.1506 27.673 93.014 27.6578C92.8926 27.6426 92.8242 27.5743 92.8091 27.4529C92.6876 27.1644 92.5889 26.8456 92.513 26.4965C92.4523 26.1473 92.384 25.7906 92.3081 25.4263C92.2626 25.2137 92.217 25.0088 92.1715 24.8114C92.1411 24.5989 92.0956 24.394 92.0349 24.1966C91.8527 23.3769 91.7009 22.4585 91.5794 21.4414C91.4732 20.4091 91.3821 19.4223 91.3062 18.4812L91.1012 16.409L90.8735 14.4507C90.8735 14.2989 90.8735 14.0636 90.8735 13.7448C90.8887 13.426 90.9039 13.0769 90.9191 12.6974C90.9343 12.3027 90.9494 11.9004 90.9646 11.4905C90.9798 11.0806 90.995 10.7087 91.0102 10.3747C91.0405 10.0256 91.0557 9.73715 91.0557 9.50944C91.0709 9.26655 91.0861 9.12993 91.1012 9.09957C91.1316 8.94776 91.2075 8.8415 91.329 8.78077C91.4656 8.72005 91.6174 8.68969 91.7844 8.68969C91.921 8.68969 92.05 8.71246 92.1715 8.758C92.3081 8.78836 92.4295 8.82632 92.5358 8.87186C92.6421 8.9174 92.718 8.97053 92.7635 9.03125C92.8242 9.09198 92.847 9.14511 92.8318 9.19065C92.8167 9.35764 92.8015 9.5398 92.7863 9.73715C92.7711 9.9345 92.7559 10.1926 92.7407 10.5114C92.7256 10.8302 92.7104 11.2248 92.6952 11.6954C92.68 12.166 92.6648 12.7657 92.6497 13.4943C92.6497 13.5399 92.6573 13.6841 92.6724 13.927C92.6876 14.1699 92.7104 14.4431 92.7407 14.7467C92.7711 15.1414 92.8015 15.5209 92.8318 15.8853C92.8774 16.2496 92.9001 16.4925 92.9001 16.6139H93.3556C93.4163 16.6139 93.5301 16.5912 93.6971 16.5456C93.8793 16.5001 94.0766 16.4545 94.2892 16.409C94.4865 16.3635 94.6687 16.3255 94.8357 16.2952C95.0027 16.2496 95.1089 16.2268 95.1545 16.2268C95.2 16.2268 95.329 16.2192 95.5416 16.2041C95.7541 16.1737 96.0046 16.1433 96.293 16.113C96.5966 16.0674 96.9154 16.0295 97.2494 15.9991C97.5833 15.9536 97.9021 15.908 98.2058 15.8625C98.3272 15.8321 98.4562 15.817 98.5929 15.817C98.7295 15.8018 98.8433 15.7866 98.9344 15.7714C99.0103 15.3312 99.0786 14.8985 99.1394 14.4735C99.2153 14.0332 99.2532 13.7448 99.2532 13.6082C99.2532 13.5475 99.2684 13.464 99.2988 13.3577C99.3443 13.2514 99.3898 13.1528 99.4354 13.0617C99.4961 12.9554 99.5644 12.8416 99.6403 12.7201C99.701 12.6594 99.7769 12.5987 99.868 12.538C99.9591 12.4621 100.05 12.4013 100.141 12.3558C100.248 12.3103 100.339 12.2951 100.415 12.3103C100.506 12.3103 100.574 12.3482 100.619 12.4241ZM93.31 11.5133C93.2341 11.3918 93.1658 11.1869 93.1051 10.8985C93.0444 10.5949 93.0368 10.3671 93.0823 10.2153C93.1279 10.0939 93.2189 9.99522 93.3556 9.91932C93.4922 9.82823 93.6288 9.75992 93.7654 9.71438C94.0235 9.6233 94.3802 9.52462 94.8357 9.41836C95.3063 9.29691 95.8072 9.17547 96.3385 9.05402C96.885 8.93258 97.4315 8.81114 97.978 8.68969C98.5245 8.55307 99.0179 8.43921 99.4581 8.34813L100.574 8.09765C100.604 8.09765 100.65 8.09765 100.711 8.09765C100.786 8.09765 100.87 8.09006 100.961 8.07488C101.234 8.04452 101.545 8.02934 101.895 8.02934C102.259 8.02934 102.509 8.09765 102.646 8.23427C102.676 8.27982 102.692 8.39367 102.692 8.57584C102.707 8.74282 102.654 8.86427 102.532 8.94017L102.327 9.00848C102.206 9.05402 102.069 9.09957 101.917 9.14511C101.766 9.19065 101.644 9.21342 101.553 9.21342C101.249 9.28932 100.938 9.37282 100.619 9.4639C100.346 9.5398 100.035 9.63089 99.6859 9.73715C99.3367 9.82823 98.9875 9.91932 98.6384 10.0104C98.2892 10.1167 97.9401 10.2153 97.5909 10.3064C97.257 10.3975 96.9534 10.481 96.6801 10.5569C96.422 10.6328 96.2019 10.6935 96.0197 10.7391C95.8376 10.7846 95.7313 10.8074 95.701 10.8074L94.7218 11.0351C94.6459 11.0654 94.5245 11.1489 94.3575 11.2856C94.1905 11.4222 94.0615 11.536 93.9704 11.6271C93.8945 11.7182 93.7806 11.741 93.6288 11.6954C93.477 11.6499 93.3707 11.5892 93.31 11.5133ZM104.057 21.7829C103.845 21.9044 103.632 22.0258 103.42 22.1473C103.207 22.2535 103.002 22.3446 102.805 22.4205C102.653 22.4964 102.478 22.5647 102.281 22.6254C102.099 22.6862 101.939 22.6558 101.803 22.5344C101.757 22.4888 101.727 22.4053 101.712 22.2839C101.712 22.1624 101.719 22.0334 101.735 21.8968C101.75 21.7602 101.772 21.6387 101.803 21.5324C101.833 21.4262 101.864 21.3579 101.894 21.3275C102.228 21.0998 102.539 20.8949 102.828 20.7127C103.116 20.5305 103.42 20.318 103.738 20.0751C103.86 19.984 103.936 19.855 103.966 19.688C104.012 19.5058 104.042 19.3313 104.057 19.1643C104.072 18.5419 104.118 17.8891 104.194 17.206C104.285 16.5229 104.399 15.8321 104.535 15.1338C104.672 14.4355 104.831 13.7524 105.014 13.0845C105.211 12.4013 105.431 11.7486 105.674 11.1262C105.841 10.6859 106.053 10.2381 106.311 9.78269C106.57 9.32727 106.858 8.90981 107.177 8.5303C107.511 8.15078 107.875 7.8244 108.27 7.55115C108.664 7.26272 109.082 7.06537 109.522 6.95911C110.099 6.82248 110.532 6.78453 110.82 6.84525C111.124 6.90598 111.344 7.00465 111.48 7.14127C111.663 7.32344 111.761 7.59669 111.776 7.96102C111.807 8.32536 111.776 8.73523 111.685 9.19065C111.609 9.64607 111.488 10.1243 111.321 10.6252C111.154 11.1262 110.979 11.6044 110.797 12.0598C110.63 12.5152 110.463 12.9251 110.296 13.2894C110.129 13.6537 110.008 13.9194 109.932 14.0864C109.689 14.557 109.408 15.0731 109.09 15.6348C108.786 16.1813 108.452 16.7506 108.088 17.3426C107.723 17.9195 107.329 18.4963 106.903 19.0732C106.494 19.6501 106.061 20.1966 105.606 20.7127C105.621 20.9556 105.621 21.2061 105.606 21.4641C105.606 21.7222 105.613 21.9803 105.628 22.2383C105.659 22.4812 105.704 22.7165 105.765 22.9442C105.826 23.1719 105.94 23.3769 106.107 23.5591C106.304 23.7868 106.532 23.9613 106.79 24.0828C107.063 24.189 107.336 24.2649 107.609 24.3105C107.883 24.356 108.141 24.3788 108.384 24.3788C108.626 24.3788 108.831 24.3788 108.998 24.3788C109.226 24.6065 109.348 24.8494 109.363 25.1075C109.378 25.3504 109.256 25.5249 108.998 25.6312C108.877 25.6767 108.664 25.6919 108.361 25.6767C108.072 25.6767 107.754 25.6464 107.404 25.5857C107.055 25.5401 106.714 25.4718 106.38 25.3807C106.046 25.2896 105.78 25.191 105.583 25.0847C105.34 24.9481 105.127 24.7583 104.945 24.5154C104.763 24.2725 104.604 24.0069 104.467 23.7184C104.346 23.4148 104.247 23.096 104.171 22.7621C104.11 22.4281 104.072 22.1017 104.057 21.7829ZM105.56 18.4812C105.742 18.299 105.955 18.0333 106.198 17.6842C106.456 17.335 106.744 16.8796 107.063 16.3179C107.397 15.7411 107.761 15.0503 108.156 14.2458C108.551 13.4412 108.991 12.4924 109.477 11.3994C109.568 11.1869 109.659 10.9592 109.75 10.7163C109.856 10.4582 109.947 10.2077 110.023 9.96486C110.099 9.70679 110.16 9.47149 110.205 9.25896C110.251 9.03125 110.266 8.8415 110.251 8.68969C110.251 8.61379 110.205 8.56825 110.114 8.55307C110.023 8.53789 109.917 8.54548 109.795 8.57584C109.689 8.6062 109.575 8.65174 109.454 8.71246C109.332 8.758 109.241 8.81114 109.181 8.87186C108.771 9.22101 108.422 9.60811 108.133 10.0332C107.845 10.4582 107.549 11.0275 107.245 11.741C107.063 12.1812 106.873 12.6746 106.676 13.2211C106.494 13.7676 106.319 14.3369 106.152 14.9289C105.985 15.5209 105.848 16.1206 105.742 16.7278C105.636 17.335 105.575 17.9195 105.56 18.4812ZM111.166 20.3711C111.197 20.1434 111.265 19.8929 111.371 19.6197C111.493 19.3464 111.614 19.1946 111.736 19.1643C111.918 19.1187 112.077 19.0884 112.214 19.0732C112.366 19.058 112.457 19.0884 112.487 19.1643C112.502 19.1643 112.548 19.2326 112.624 19.3692C112.7 19.5058 112.7 19.7032 112.624 19.9613C112.593 20.0523 112.563 20.2117 112.533 20.4394C112.502 20.652 112.487 20.8949 112.487 21.1681C112.487 21.4414 112.502 21.7222 112.533 22.0106C112.563 22.2991 112.624 22.5495 112.715 22.7621C112.806 22.9746 112.92 23.1719 113.056 23.3541C113.193 23.5211 113.36 23.6577 113.557 23.764C113.755 23.8551 113.975 23.9006 114.218 23.9006C114.476 23.9006 114.756 23.8399 115.06 23.7184C115.197 23.6577 115.341 23.5363 115.493 23.3541C115.66 23.1719 115.812 22.967 115.948 22.7393C116.1 22.4964 116.221 22.2383 116.312 21.9651C116.419 21.6767 116.479 21.3958 116.495 21.1226C116.51 20.9404 116.502 20.6975 116.472 20.3939C116.457 20.0751 116.396 19.7563 116.29 19.4375C116.183 19.1036 116.016 18.7924 115.789 18.5039C115.576 18.2003 115.28 17.9574 114.901 17.7753C114.552 17.6235 114.248 17.5475 113.99 17.5475C113.747 17.5475 113.527 17.5931 113.33 17.6842C113.147 17.7601 112.98 17.8739 112.829 18.0257C112.692 18.1624 112.563 18.299 112.441 18.4356C112.411 18.466 112.358 18.4812 112.282 18.4812C112.206 18.4812 112.123 18.4736 112.032 18.4584C111.94 18.428 111.857 18.3977 111.781 18.3673C111.72 18.3369 111.69 18.3066 111.69 18.2762C111.69 17.9726 111.72 17.7297 111.781 17.5475C111.842 17.3654 111.963 17.1756 112.145 16.9783C112.449 16.6747 112.821 16.4621 113.261 16.3407C113.701 16.2041 114.096 16.1358 114.445 16.1358C115.022 16.1358 115.523 16.2648 115.948 16.5229C116.373 16.7809 116.722 17.1149 116.996 17.5248C117.284 17.9347 117.497 18.3977 117.633 18.9138C117.785 19.4148 117.868 19.9233 117.884 20.4394C117.914 21.3806 117.8 22.1928 117.542 22.8759C117.299 23.5439 117.041 24.0372 116.768 24.356C116.373 24.8114 115.887 25.1226 115.311 25.2896C114.749 25.4414 114.18 25.487 113.603 25.4263C113.208 25.3959 112.851 25.2517 112.533 24.9936C112.214 24.7204 111.94 24.3636 111.713 23.9234C111.5 23.468 111.341 22.9442 111.235 22.3522C111.144 21.745 111.121 21.0846 111.166 20.3711ZM120.34 22.0106C120.34 21.8133 120.348 21.5932 120.363 21.3503C120.393 21.0922 120.424 20.8265 120.454 20.5533C120.499 20.28 120.545 20.0144 120.591 19.7563C120.651 19.4983 120.712 19.263 120.773 19.0504C120.818 18.8834 120.925 18.7999 121.092 18.7999C121.274 18.7848 121.448 18.7772 121.615 18.7772C121.722 18.7772 121.797 18.8075 121.843 18.8683C121.904 18.929 121.942 19.0049 121.957 19.096C121.987 19.1719 122.002 19.2554 122.002 19.3464C122.002 19.4223 121.995 19.4831 121.98 19.5286C121.904 19.9233 121.851 20.356 121.82 20.8265C121.805 21.2971 121.797 21.745 121.797 22.17C121.813 22.5799 121.835 22.9366 121.866 23.2403C121.896 23.5439 121.934 23.726 121.98 23.7868C122.131 23.635 122.306 23.3769 122.503 23.0126C122.701 22.6482 122.89 22.2611 123.073 21.8512C123.27 21.4262 123.452 21.0315 123.619 20.6672C123.801 20.2876 123.945 20.022 124.052 19.8702C124.067 19.855 124.112 19.8322 124.188 19.8019C124.264 19.7563 124.355 19.7335 124.462 19.7335C124.568 19.7184 124.667 19.7184 124.758 19.7335C124.864 19.7487 124.947 19.7867 125.008 19.8474C125.13 19.984 125.266 20.1814 125.418 20.4394C125.57 20.6975 125.729 20.9708 125.896 21.2592C126.063 21.5476 126.238 21.8361 126.42 22.1245C126.602 22.4129 126.784 22.6634 126.966 22.8759C127.073 22.9974 127.232 23.1264 127.445 23.263C127.672 23.3997 127.839 23.468 127.946 23.468C128.173 23.468 128.424 23.3541 128.697 23.1264C128.985 22.8987 129.259 22.6482 129.517 22.375C129.775 22.1017 129.987 21.8436 130.154 21.6008C130.336 21.3579 130.443 21.2137 130.473 21.1681C130.853 20.6368 131.179 20.0523 131.452 19.4148C131.725 18.762 131.991 18.0637 132.249 17.3198C132.28 17.2288 132.31 17.0997 132.34 16.9327C132.371 16.7657 132.401 16.5912 132.431 16.409C132.462 16.2117 132.485 16.0295 132.5 15.8625C132.53 15.6955 132.545 15.5741 132.545 15.4982C132.545 15.2097 132.53 14.982 132.5 14.815C132.469 14.6329 132.431 14.4963 132.386 14.4052C132.34 14.2989 132.287 14.2154 132.226 14.1547C132.181 14.094 132.128 14.0332 132.067 13.9725C131.946 13.8359 131.756 13.6765 131.498 13.4943C131.255 13.3122 130.989 13.1224 130.701 12.9251C130.428 12.7277 130.154 12.5456 129.881 12.3786C129.608 12.1964 129.395 12.0522 129.243 11.9459C129.198 11.9004 129.152 11.8397 129.107 11.7638C129.061 11.6879 129.092 11.5436 129.198 11.3311C129.259 11.2552 129.38 11.1945 129.562 11.1489C129.744 11.1034 130.01 11.1489 130.359 11.2856C131.103 11.5892 131.786 11.9535 132.409 12.3786C133.031 12.7884 133.494 13.2135 133.798 13.6537C133.919 13.8207 134.003 14.056 134.048 14.3596C134.109 14.6632 134.139 14.9896 134.139 15.3388C134.139 15.6879 134.124 16.0371 134.094 16.3862C134.063 16.7202 134.018 17.0162 133.957 17.2743C133.866 17.7753 133.676 18.3749 133.388 19.0732C133.099 19.7715 132.75 20.4774 132.34 21.1909C131.946 21.9044 131.498 22.5951 130.997 23.263C130.511 23.931 130.018 24.4851 129.517 24.9253C129.441 25.0012 129.327 25.0619 129.175 25.1075C129.039 25.153 128.879 25.191 128.697 25.2213C128.53 25.2517 128.355 25.2745 128.173 25.2896C127.991 25.2896 127.824 25.2745 127.672 25.2441C127.596 25.2289 127.505 25.191 127.399 25.1302C127.293 25.0543 127.179 24.9708 127.057 24.8798C126.936 24.7887 126.815 24.6976 126.693 24.6065C126.587 24.5002 126.503 24.4168 126.443 24.356C126.367 24.2953 126.253 24.1815 126.101 24.0145C125.964 23.8475 125.805 23.6577 125.623 23.4452C125.441 23.2175 125.259 22.9974 125.076 22.7848C124.894 22.5571 124.742 22.3522 124.621 22.17C124.439 22.3977 124.264 22.6482 124.097 22.9215C123.945 23.1947 123.786 23.4831 123.619 23.7868C123.467 24.0752 123.308 24.3636 123.141 24.6521C122.974 24.9253 122.807 25.1834 122.64 25.4263C122.564 25.5477 122.427 25.6388 122.23 25.6995C122.048 25.7754 121.82 25.7602 121.547 25.654C121.395 25.5932 121.258 25.5249 121.137 25.449C121.031 25.3731 120.94 25.2745 120.864 25.153C120.773 24.9708 120.689 24.7583 120.613 24.5154C120.553 24.2574 120.499 23.9917 120.454 23.7184C120.408 23.43 120.378 23.1416 120.363 22.8532C120.348 22.5495 120.34 22.2687 120.34 22.0106Z" fill="url(#paint1_linear_43_1666)"/>
<path d="M42.4917 5.37431C42.7864 7.04609 44.4833 7.96968 45.2948 8.2225L45.2372 10.7808C44.8729 11.2913 43.9066 12.2161 42.9557 11.8309C42.0049 11.4457 41.7515 10.7075 41.7437 10.3866C42.6486 10.9354 43.1205 10.8965 43.2434 10.8084C41.4115 9.99886 41.2915 8.4204 41.4606 7.73236C41.6667 8.67306 42.7833 9.30592 43.3159 9.50476C43.0844 9.19445 42.4723 8.46561 42.2645 7.73236C42.0751 7.06387 42.1956 5.904 42.4917 5.37431Z" fill="#4794FD"/>
<path d="M138.372 14.8332C136.209 14.2677 133.764 14.5635 132.812 14.7821L131.805 21.6622L132.282 20.7119C132.341 20.414 132.65 19.7864 133.418 19.6592C134.185 19.5319 135.875 20.1434 137.383 20.4405C138.891 20.7376 141.676 18.6754 141.63 18.028C140.354 18.6122 139.322 19.1399 137.613 18.6871C135.903 18.2342 134.172 18.0866 133.547 18.1181C134.234 17.6964 133.257 18.119 134.919 17.6341C136.581 17.1493 137.117 17.0808 138.937 17.2654C140.757 17.45 142.86 14.8278 142.867 13.5141C142.27 14.1894 140.535 15.3986 138.372 14.8332Z" fill="#0067DB"/>
<defs>
<linearGradient id="paint0_linear_43_1666" x1="3.87085" y1="11.9536" x2="31.2282" y2="15.174" gradientUnits="userSpaceOnUse">
<stop stop-color="#4794FD"/>
<stop offset="1" stop-color="#0067DB"/>
</linearGradient>
<linearGradient id="paint1_linear_43_1666" x1="41.2969" y1="7.24634" x2="129.906" y2="26.1165" gradientUnits="userSpaceOnUse">
<stop stop-color="#4794FD"/>
<stop offset="1" stop-color="#0067DB"/>
</linearGradient>
</defs>
</svg>
