<svg width="18" height="18" viewBox="0 0 18 18" fill="none" xmlns="http://www.w3.org/2000/svg">
<path d="M16.371 4.3956C15.8132 4.63921 15.2224 4.79895 14.6178 4.86961C15.2524 4.49698 15.7296 3.90604 15.9603 3.20721C15.359 3.5572 14.7032 3.80371 14.0203 3.93647C13.7327 3.63524 13.3868 3.39577 13.0036 3.23265C12.6204 3.06952 12.2081 2.98618 11.7916 2.98769C10.1054 2.98769 8.73841 4.33458 8.73841 5.99401C8.73841 6.22915 8.7652 6.45909 8.81729 6.67861C7.60775 6.62109 6.42349 6.31206 5.34006 5.77124C4.25664 5.23042 3.29784 4.4697 2.52486 3.53761C2.25387 3.99481 2.11143 4.51673 2.11261 5.04821C2.11313 5.54527 2.2375 6.03436 2.47448 6.47129C2.71146 6.90822 3.05358 7.27921 3.46992 7.55074C2.98585 7.53511 2.51223 7.40588 2.08731 7.17346V7.21067C2.08731 8.66769 3.14027 9.88287 4.53552 10.1597C4.2733 10.2293 4.00315 10.2645 3.73186 10.2646C3.53466 10.2646 3.34342 10.246 3.15664 10.2088C3.35613 10.81 3.73789 11.3342 4.2489 11.7085C4.7599 12.0828 5.37479 12.2887 6.00817 12.2976C4.92178 13.1344 3.5881 13.5865 2.21679 13.5827C1.96974 13.5827 1.72715 13.5678 1.48828 13.541C2.88819 14.4271 4.51141 14.8963 6.16816 14.8939C11.7842 14.8939 14.8545 10.3122 14.8545 6.33929L14.8441 5.9501C15.443 5.52867 15.9604 5.00196 16.371 4.3956Z" fill="#525252"/>
</svg>
