<svg width="30" height="30" viewBox="0 0 30 30" fill="none" xmlns="http://www.w3.org/2000/svg">
<path d="M16.575 4.12582C16.7706 3.98587 16.9996 3.89969 17.2389 3.87589C17.4783 3.85209 17.7197 3.89149 17.9391 3.99017C18.1584 4.08885 18.3481 4.24334 18.4891 4.43823C18.63 4.63313 18.7174 4.86159 18.7425 5.10082L18.75 5.24332V24.7583C18.7501 24.9989 18.6871 25.2352 18.5672 25.4438C18.4474 25.6524 18.2749 25.8258 18.0671 25.9469C17.8592 26.068 17.6232 26.1324 17.3827 26.1338C17.1421 26.1351 16.9054 26.0733 16.6963 25.9546L16.5762 25.8771L8.35 20.0008H5C4.36928 20.001 3.76179 19.7628 3.29932 19.3339C2.83684 18.9051 2.55355 18.3173 2.50625 17.6883L2.5 17.5008V12.5008C2.4998 11.8701 2.73801 11.2626 3.16687 10.8001C3.59573 10.3377 4.18356 10.0544 4.8125 10.0071L5 10.0008H8.35L16.575 4.12582ZM24.5837 8.47957C25.5012 9.30027 26.2352 10.3053 26.7377 11.429C27.2402 12.5528 27.5 13.7699 27.5 15.0008C27.5 16.2318 27.2402 17.4489 26.7377 18.5726C26.2352 19.6963 25.5012 20.7014 24.5837 21.5221C24.4618 21.6334 24.3189 21.7194 24.1635 21.7751C24.0081 21.8309 23.8431 21.8553 23.6782 21.847C23.5133 21.8386 23.3517 21.7977 23.2027 21.7265C23.0536 21.6553 22.9202 21.5554 22.8101 21.4323C22.6999 21.3093 22.6152 21.1657 22.5609 21.0097C22.5066 20.8538 22.4837 20.6887 22.4936 20.5238C22.5035 20.359 22.5459 20.1977 22.6184 20.0494C22.691 19.9011 22.7922 19.7686 22.9163 19.6596C23.5718 19.0733 24.0962 18.3554 24.4553 17.5526C24.8144 16.7498 25 15.8803 25 15.0008C25 13.1508 24.1975 11.4883 22.9163 10.3421C22.7922 10.2331 22.691 10.1006 22.6184 9.95224C22.5459 9.8039 22.5035 9.64265 22.4936 9.47782C22.4837 9.31299 22.5066 9.14783 22.5609 8.9919C22.6152 8.83596 22.6999 8.69233 22.8101 8.5693C22.9202 8.44628 23.0536 8.34629 23.2027 8.27513C23.3517 8.20396 23.5133 8.16303 23.6782 8.15468C23.8431 8.14634 24.0081 8.17076 24.1635 8.22652C24.3189 8.28228 24.4618 8.36829 24.5837 8.47957ZM22.0837 11.2746C22.6078 11.7434 23.0271 12.3175 23.3142 12.9593C23.6013 13.6012 23.7498 14.2964 23.75 14.9996C23.7502 15.7031 23.6018 16.3988 23.3147 17.0412C23.0276 17.6835 22.6081 18.258 22.0837 18.7271C21.8467 18.9376 21.5385 19.0502 21.2216 19.042C20.9046 19.0339 20.6026 18.9056 20.3767 18.6832C20.1508 18.4608 20.0178 18.1608 20.0048 17.844C19.9917 17.5273 20.0994 17.2174 20.3063 16.9771L20.4163 16.8646C20.9288 16.4046 21.25 15.7408 21.25 15.0008C21.2502 14.361 21.005 13.7454 20.565 13.2808L20.4163 13.1371C20.2922 13.0281 20.191 12.8956 20.1184 12.7472C20.0459 12.5989 20.0035 12.4377 19.9936 12.2728C19.9837 12.108 20.0066 11.9428 20.0609 11.7869C20.1152 11.631 20.1999 11.4873 20.3101 11.3643C20.4202 11.2413 20.5536 11.1413 20.7027 11.0701C20.8517 10.999 21.0133 10.958 21.1782 10.9497C21.3431 10.9413 21.5081 10.9658 21.6635 11.0215C21.8189 11.0773 21.9618 11.1633 22.0837 11.2746Z" fill="black"/>
</svg>
