<svg width="18" height="18" viewBox="0 0 18 18" fill="none" xmlns="http://www.w3.org/2000/svg">
<path d="M13.2546 3.73329H4.57273C2.86866 3.73329 1.48828 5.09878 1.48828 6.78351V11.0757C1.48828 12.7604 2.8694 14.1267 4.57273 14.1267H13.2546C14.9587 14.1267 16.339 12.7604 16.339 11.0757V6.78351C16.339 5.09878 14.9579 3.73254 13.2546 3.73254V3.73329ZM11.1688 9.13796L7.10801 11.0541C7.08324 11.066 7.05586 11.0715 7.02841 11.07C7.00096 11.0685 6.97434 11.0601 6.95102 11.0455C6.9277 11.031 6.90844 11.0107 6.89504 10.9867C6.88163 10.9628 6.87451 10.9358 6.87435 10.9083V6.95764C6.87484 6.93001 6.88232 6.90296 6.89609 6.879C6.90986 6.85504 6.92947 6.83496 6.95309 6.82062C6.97671 6.80629 7.00358 6.79816 7.03119 6.79701C7.0588 6.79585 7.08625 6.8017 7.11098 6.81402L11.1725 8.84923C11.1995 8.86272 11.2222 8.88357 11.238 8.90938C11.2537 8.93519 11.2619 8.96491 11.2615 8.99514C11.2611 9.02536 11.2522 9.05487 11.2358 9.08026C11.2194 9.10565 11.1962 9.12591 11.1688 9.1387V9.13796Z" fill="#525252"/>
</svg>
